<svg xmlns="http://www.w3.org/2000/svg" x="0px" y="0px"
     width="64" height="64"
     viewBox="0 0 64 64"
     style="enable-background:new 0 0 64 64;;fill:#ffffff;">
  <circle style="fill:#ffffff;" cx="15" cy="49" r="3"></circle>
  <path style="fill:#ffffff;" d="M49,42h-9.017C45.342,39.136,49,33.489,49,27c0-6.89-2.806-11.547-8.577-14.236L39,12.101V23  c0,1.654-1.346,3-3,3s-3-1.346-3-3V8h-1c-9.729,0-17,10.031-17,19c0,6.489,3.658,12.136,9.017,15H15c-3.859,0-7,3.141-7,7  s3.141,7,7,7h34c3.859,0,7-3.141,7-7S52.859,42,49,42z M17,27c0-7.71,5.922-16.297,14-16.959V23c0,2.757,2.243,5,5,5s5-2.243,5-5  v-7.677c4.085,2.414,6,6.165,6,11.677c0,8.271-6.729,15-15,15S17,35.271,17,27z M10,49c0-2.757,2.243-5,5-5s5,2.243,5,5  s-2.243,5-5,5S10,51.757,10,49z M49,54h-0.219l-0.432-1.729C48.015,50.935,46.818,50,45.439,50H31v2h14.439  c0.459,0,0.857,0.311,0.969,0.757L46.719,54h-26.83c1.3-1.271,2.111-3.042,2.111-5s-0.811-3.729-2.111-5h3.33l0.432,1.729  C23.985,47.065,25.182,48,26.561,48H41v-2H26.561c-0.459,0-0.857-0.311-0.969-0.757L25.281,44H49c2.757,0,5,2.243,5,5  S51.757,54,49,54z"></path>
  <rect x="43" y="46" style="fill:#ffffff;" width="4" height="2"></rect>
  <rect x="25" y="50" style="fill:#ffffff;" width="4" height="2"></rect>
  <path style="fill:#ffffff;" d="M32,40c-7.168,0-13-5.832-13-13h2c0,6.065,4.935,11,11,11V40z"></path>
</svg>
