<svg xmlns="http://www.w3.org/2000/svg" x="0px" y="0px"
     width="64" height="64"
     viewBox="0 0 64 64"
     style="enable-background:new 0 0 64 64;;fill:#9aa8bb;">
  <linearGradient id="SVGID_1__48312" gradientUnits="userSpaceOnUse" x1="32" y1="9.8333" x2="32" y2="54.7159" spreadMethod="reflect">
    <stop offset="0" style="stop-color:#9aa8bb"></stop>
    <stop offset="1" style="stop-color:#b3c3d8"></stop>
  </linearGradient>
  <path style="fill:url(#SVGID_1__48312);" d="M31,54C25.774,54,6,40.812,6,23c0-7.168,5.832-13,13-13c5.397,0,10.037,3.307,12,8  c1.963-4.693,6.603-8,12-8c7.168,0,13,5.832,13,13c0,3.106-0.613,6.257-1.823,9.363L53.4,33.987l-0.958-0.642  C51.126,32.465,49.591,32,48,32c-4.411,0-8,3.589-8,8s3.589,8,8,8s8-3.589,8-8h2c0,5.514-4.486,10-10,10  c-2.16,0-4.162-0.688-5.799-1.857C37.903,51.662,33.449,54,31,54z M19,12c-6.065,0-11,4.935-11,11c0,16.32,18.345,29,23,29  c1.613,0,5.484-1.816,9.678-5.196C39.017,45.018,38,42.625,38,40c0-5.514,4.486-10,10-10c1.587,0,3.131,0.371,4.527,1.081  C53.496,28.429,54,25.692,54,23c0-6.065-4.935-11-11-11s-11,4.935-11,11h-2C30,16.935,25.065,12,19,12z"></path>
  <linearGradient id="SVGID_2__48312" gradientUnits="userSpaceOnUse" x1="50.5" y1="33.6667" x2="50.5" y2="44.2733" spreadMethod="reflect">
    <stop offset="0" style="stop-color:#9aa8bb"></stop>
    <stop offset="1" style="stop-color:#b3c3d8"></stop>
  </linearGradient>
  <path style="fill:url(#SVGID_2__48312);" d="M48,43.583c-0.512,0-1.024-0.194-1.414-0.583l-2.292-2.293l1.414-1.414l2.292,2.292  l7.294-7.292l1.414,1.414l-7.292,7.292C49.025,43.389,48.512,43.583,48,43.583z"></path>
  <linearGradient id="SVGID_3__48312" gradientUnits="userSpaceOnUse" x1="14.5" y1="12.8333" x2="14.5" y2="24.8899" spreadMethod="reflect">
    <stop offset="0" style="stop-color:#9aa8bb"></stop>
    <stop offset="1" style="stop-color:#b3c3d8"></stop>
  </linearGradient>
  <path style="fill:url(#SVGID_3__48312);" d="M19,14c-4.971,0-9,4.029-9,9h9V14z"></path>
</svg>
