<svg xmlns="http://www.w3.org/2000/svg" x="0px" y="0px"
     width="64" height="64"
     viewBox="0 0 252 252"
     style="fill:#666666;">
  <defs>
    <linearGradient id="grad1" x1="0%" y1="50%" x2="100%" y2="0%">
      <stop offset="0%" style="stop-color:rgb(77,160,255);stop-opacity:1" />
      <stop offset="100%" style="stop-color:rgb(57,238,255);stop-opacity:1" />
    </linearGradient>
  </defs>
  <g fill="none" fill-rule="nonzero" stroke="none" stroke-width="1" stroke-linecap="butt" stroke-linejoin="miter" stroke-miterlimit="10" stroke-dasharray="" stroke-dashoffset="0" font-family="none" font-weight="none" font-size="none" text-anchor="none" style="mix-blend-mode: normal">
    <path d="M0,252v-252h252v252z" fill="none"></path>
    <g id="Слой_1" fill="url(#grad1)">
      <path d="M216.56644,55.125h-3.94144v-4.26431c0,-6.3315 -5.15419,-11.48569 -11.48175,-11.48569h-51.51431c-10.03275,0 -18.8055,5.40619 -23.62894,13.43869c-4.8195,-8.0325 -13.59225,-13.43869 -23.62106,-13.43869h-51.51825c-6.3315,0 -11.48569,5.15419 -11.48569,11.48569v4.26431h-3.93356c-6.51262,0 -11.81644,5.29988 -11.81644,11.8125v126c0,6.51262 5.30381,11.8125 11.81644,11.8125h70.87106c0,4.34306 3.53194,7.875 7.87894,7.875h23.625c4.34306,0 7.87106,-3.53194 7.87106,-7.875h70.87894c6.50869,0 11.80856,-5.29987 11.80856,-11.8125v-126c0,-6.51262 -5.29987,-11.8125 -11.80856,-11.8125zM47.25,173.25v0h55.12894c7.45762,0 13.87575,4.21312 17.21475,10.33987c-2.79169,-1.51987 -5.94169,-2.46487 -9.33975,-2.46487h-63.00394zM149.62894,47.25h51.51431c1.98844,0 3.60675,1.61831 3.60675,3.61069v110.57681v3.9375h-55.12106c-7.70569,0 -14.68294,3.1815 -19.69144,8.29237v-106.72987c0,-10.85569 8.83181,-19.6875 19.69144,-19.6875zM204.75,173.25v7.875h-62.99606c-3.402,0 -6.55594,0.945 -9.35156,2.46881c3.34294,-6.12675 9.765,-10.34381 17.22656,-10.34381zM47.25,50.86069c0,-1.99237 1.61831,-3.61069 3.61069,-3.61069h51.51825c10.85569,0 19.68356,8.83181 19.68356,19.6875v106.72594c-5.00456,-5.11087 -11.98181,-8.28844 -19.68356,-8.28844h-55.12894v-3.9375zM220.5,192.9375c0,2.1735 -1.764,3.9375 -3.93356,3.9375h-78.75394v7.875h-23.625v-7.875h-78.74606c-2.1735,0 -3.94144,-1.764 -3.94144,-3.9375v-126c0,-2.1735 1.76794,-3.9375 3.94144,-3.9375h3.93356v98.4375v3.9375v15.75c0,4.34306 3.53194,7.875 7.87894,7.875h63c6.51263,0 11.8125,5.29988 11.8125,11.8125h7.875c0,-6.51262 5.29987,-11.8125 11.8125,-11.8125h63c4.34306,0 7.87106,-3.53194 7.87106,-7.875v-15.75v-3.9375v-98.4375h3.94144c2.16956,0 3.93356,1.764 3.93356,3.9375z"></path>
      <path d="M98.4375,82.6875v19.6875c0,6.51263 -5.29987,11.8125 -11.8125,11.8125c-6.51262,0 -11.8125,-5.29987 -11.8125,-11.8125v-19.6875h-7.875v19.6875c0,7.93406 4.74469,14.74594 11.52113,17.8605l-2.63419,21.08531c-0.38981,3.09881 0.57488,6.21731 2.64206,8.55619c2.06325,2.34281 5.04,3.6855 8.16244,3.6855c3.1185,0 6.09525,-1.34269 8.1585,-3.68156c2.06325,-2.33888 3.03187,-5.45738 2.646,-8.56012l-2.63419,-21.08925c6.7725,-3.11456 11.51325,-9.92644 11.51325,-17.85656v-19.6875zM89.62144,142.29731c0.14569,1.17731 -0.39769,1.99238 -0.73631,2.37431c-0.33469,0.378 -1.07494,1.01587 -2.25619,1.01587c-1.18519,0 -1.92544,-0.63788 -2.26013,-1.01981c-0.33469,-0.38194 -0.87806,-1.197 -0.73238,-2.37037l2.53575,-20.28206c0.15356,0.00394 0.29531,0.04725 0.45281,0.04725c0.1575,0 0.30319,-0.04331 0.46069,-0.04725z"></path>
      <path d="M86.625,106.3125c2.1735,0 3.9375,-1.764 3.9375,-3.9375v-0.01181v-19.67569h-7.875v19.6875v0c0,2.1735 1.764,3.9375 3.9375,3.9375z"></path>
      <rect x="40" y="22" transform="scale(3.9375,3.9375)" width="10" height="2"></rect>
      <rect x="36" y="22" transform="scale(3.9375,3.9375)" width="2" height="2"></rect>
      <rect x="40" y="26" transform="scale(3.9375,3.9375)" width="10" height="2"></rect>
      <rect x="36" y="26" transform="scale(3.9375,3.9375)" width="2" height="2"></rect>
      <rect x="40" y="30" transform="scale(3.9375,3.9375)" width="10" height="2"></rect>
      <rect x="36" y="30" transform="scale(3.9375,3.9375)" width="2" height="2"></rect>
    </g>
  </g>
</svg>
