<svg xmlns="http://www.w3.org/2000/svg" x="0px" y="0px"
     width="96" height="96"
     viewBox="0 0 64 64"
     style="enable-background:new 0 0 64 64;;fill:#9aa8bb;">
  <linearGradient id="SVGID_1__43658" gradientUnits="userSpaceOnUse" x1="45" y1="5.5" x2="45" y2="58.3231" spreadMethod="reflect">
    <stop offset="0" style="stop-color:#9aa8bb"></stop>
    <stop offset="1" style="stop-color:#b3c3d8"></stop>
  </linearGradient>
  <path style="fill:url(#SVGID_1__43658);" d="M49,32V6h-1c-3.859,0-7,3.141-7,7v16c0,1.195,0.439,2.279,1.141,3.14  C40.907,32.512,40,33.646,40,35c0,0.771,0.301,1.468,0.78,2c-0.48,0.532-0.78,1.229-0.78,2v14c0,2.757,2.243,5,5,5s5-2.243,5-5V38  v-2v-4H49z M43,13c0-2.415,1.721-4.435,4-4.899V32h-1c-1.654,0-3-1.346-3-3V13z M48,42h-3v2h3v2h-3v2h3v2h-3v2h3v1  c0,1.654-1.346,3-3,3s-3-1.346-3-3V39c0-0.552,0.448-1,1-1h5V42z M43,36c-0.552,0-1-0.448-1-1s0.448-1,1-1h3h2v2H43z"></path>
  <linearGradient id="SVGID_2__43658" gradientUnits="userSpaceOnUse" x1="22" y1="5.5" x2="22" y2="58.3231" spreadMethod="reflect">
    <stop offset="0" style="stop-color:#9aa8bb"></stop>
    <stop offset="1" style="stop-color:#b3c3d8"></stop>
  </linearGradient>
  <path style="fill:url(#SVGID_2__43658);" d="M28,18c0,2.633-1.762,4.997-4.285,5.748L23,23.96V32h-2v-8.04l-0.715-0.212  C17.762,22.997,16,20.633,16,18V6h-2v12c0,3.257,2.021,6.204,5,7.414V32c-1.654,0-3,1.346-3,3c0,1.065,0.562,1.997,1.401,2.529  C17.153,37.966,17,38.463,17,39v14c0,2.757,2.243,5,5,5s5-2.243,5-5V39c0-0.537-0.153-1.034-0.401-1.471  C27.438,36.997,28,36.065,28,35c0-1.654-1.346-3-3-3v-6.586c2.979-1.21,5-4.157,5-7.414V6h-2V18z M25,53c0,1.654-1.346,3-3,3  s-3-1.346-3-3v-1h3v-2h-3v-2h3v-2h-3v-2h3v-2h-3v-3c0-0.552,0.448-1,1-1h4c0.552,0,1,0.448,1,1V53z M26,35c0,0.552-0.448,1-1,1h-1  h-4h-1c-0.552,0-1-0.448-1-1s0.448-1,1-1h6C25.552,34,26,34.448,26,35z"></path>
  <linearGradient id="SVGID_3__43658" gradientUnits="userSpaceOnUse" x1="24" y1="5.5" x2="24" y2="58.3231" spreadMethod="reflect">
    <stop offset="0" style="stop-color:#9aa8bb"></stop>
    <stop offset="1" style="stop-color:#b3c3d8"></stop>
  </linearGradient>
  <rect x="23" y="6" style="fill:url(#SVGID_3__43658);" width="2" height="12"></rect>
  <linearGradient id="SVGID_4__43658" gradientUnits="userSpaceOnUse" x1="20" y1="5.5" x2="20" y2="58.3231" spreadMethod="reflect">
    <stop offset="0" style="stop-color:#9aa8bb"></stop>
    <stop offset="1" style="stop-color:#b3c3d8"></stop>
  </linearGradient>
  <rect x="19" y="6" style="fill:url(#SVGID_4__43658);" width="2" height="12"></rect>
  <linearGradient id="SVGID_5__43658" gradientUnits="userSpaceOnUse" x1="22" y1="33.6667" x2="22" y2="36.1667" spreadMethod="reflect">
    <stop offset="0" style="stop-color:#9aa8bb"></stop>
    <stop offset="1" style="stop-color:#b3c3d8"></stop>
  </linearGradient>
  <path style="fill:url(#SVGID_5__43658);" d="M26,35c0,0.552-0.448,1-1,1h-6c-0.552,0-1-0.448-1-1l0,0c0-0.552,0.448-1,1-1h6  C25.552,34,26,34.448,26,35L26,35z"></path>
  <linearGradient id="SVGID_6__43658" gradientUnits="userSpaceOnUse" x1="45" y1="33.6667" x2="45" y2="36.1667" spreadMethod="reflect">
    <stop offset="0" style="stop-color:#9aa8bb"></stop>
    <stop offset="1" style="stop-color:#b3c3d8"></stop>
  </linearGradient>
  <path style="fill:url(#SVGID_6__43658);" d="M48,36h-5c-0.552,0-1-0.448-1-1l0,0c0-0.552,0.448-1,1-1h5V36z"></path>
</svg>
