<?xml version="1.0" standalone="no"?>
<!DOCTYPE svg PUBLIC "-//W3C//DTD SVG 1.1//EN" "http://www.w3.org/Graphics/SVG/1.1/DTD/svg11.dtd" >
<svg xmlns="http://www.w3.org/2000/svg">
    <defs>
        <font id="Europa-Bold">
            <font-face font-family="Europa-Bold"
                       units-per-em="2048"
                       ascent="2032"
                       descent="-603"
                       bbox="-96 -563 2048 2032"
                    />
            <missing-glyph horiz-adv-x="0" />
            
            <glyph glyph-name="!" unicode="&#x21;" horiz-adv-x="475" d=" M152,137 Q152,205 199,252 Q246,299 313,299 Q381,299 428,252 Q475,205 475,137 Q475,70 428,23 Q380,-25 313,-25 Q247,-25 199,23 Q152,70 152,137 M186,1434 L440,1434 L430,410 L197,410"/> 
            <glyph glyph-name="&quot;" unicode="&#x22;" horiz-adv-x="696" d=" M123,926 L123,1434 L340,1434 L340,926 M479,926 L479,1434 L696,1434 L696,926"/> 
            <glyph glyph-name="#" unicode="&#x23;" horiz-adv-x="1233" d=" M80,430 L80,610 L346,610 L381,856 L141,856 L141,1036 L406,1036 L467,1468 L645,1444 L588,1036 L811,1036 L872,1468 L1051,1444 L993,1036 L1233,1036 L1233,856 L969,856 L934,610 L1171,610 L1171,430 L909,430 L844,-35 L664,-10 L725,430 L504,430 L438,-35 L258,-10 L319,430 M528,610 L752,610 L786,856 L563,856"/> 
            <glyph glyph-name="$" unicode="&#x24;" horiz-adv-x="1110" d=" M84,264 L274,416 Q288,390 322,349 Q350,315 386,288 Q427,258 465,239 Q513,216 555,209 L555,616 Q486,640 413,678 Q338,717 282,766 Q222,819 185,886 Q147,956 147,1044 Q147,1116 175,1188 Q202,1257 255,1313 Q308,1369 383,1406 Q460,1444 555,1454 L555,1626 L684,1626 L684,1454 Q746,1448 804,1427 Q866,1405 913,1377 Q975,1341 1006,1314 Q1045,1281 1073,1245 L889,1092 Q863,1128 805,1167 Q749,1205 684,1221 L684,819 Q688,816 696,814 Q704,812 707,811 Q781,783 855,748 Q927,714 985,663 Q1041,615 1076,544 Q1110,476 1110,381 Q1110,286 1075,214 Q1040,144 982,94 Q923,44 846,16 Q768,-12 684,-20 L684,-193 L555,-193 L555,-23 Q473,-17 400,12 Q327,41 266,81 Q203,122 158,169 Q111,218 84,264 M397,1049 Q397,986 437,946 Q480,903 555,870 L555,1221 Q484,1205 440,1159 Q397,1115 397,1049 M684,211 Q752,223 806,262 Q860,301 860,381 Q860,448 815,492 Q772,533 684,569"/> 
            <glyph glyph-name="%" unicode="&#x25;" horiz-adv-x="1413" d=" M45,1066 Q45,1200 72,1260 Q99,1321 143,1363 Q189,1408 249,1433 Q308,1458 377,1458 Q446,1458 505,1433 Q563,1408 610,1363 Q655,1319 682,1260 Q709,1200 709,1133 Q709,1066 682,1006 Q655,945 610,902 Q565,858 505,833 Q444,807 377,807 Q310,807 249,833 Q187,859 143,902 Q100,943 72,1006 M182,14 L1147,1497 L1264,1417 L299,-66 M209,1133 Q209,1062 256,1013 Q302,965 377,965 Q450,965 496,1013 Q543,1062 543,1133 Q543,1203 496,1252 Q450,1300 377,1300 Q302,1300 256,1252 Q209,1203 209,1133 M750,232 Q750,370 776,428 Q803,487 848,531 Q895,576 953,601 Q1014,627 1081,627 Q1148,627 1209,601 Q1269,576 1315,531 Q1359,489 1386,428 Q1413,368 1413,301 Q1413,234 1386,174 Q1359,113 1315,71 Q1269,26 1209,1 Q1148,-25 1081,-25 Q1014,-25 953,1 Q895,26 848,71 Q803,115 776,174 M913,371 Q913,231 961,181 Q1008,133 1081,133 Q1154,133 1200,181 Q1247,230 1247,301 Q1247,372 1200,421 Q1154,469 1081,469 Q1008,469 961,421"/> 
            <glyph glyph-name="&amp;" unicode="&#x26;" horiz-adv-x="1423" d=" M111,363 Q111,413 125,456 Q141,506 173,549 Q211,600 261,646 Q318,699 393,756 Q280,858 237,936 Q193,1015 193,1096 Q193,1168 221,1233 Q250,1299 301,1349 Q350,1397 425,1428 Q497,1458 584,1458 Q670,1458 742,1428 Q817,1397 866,1349 Q917,1300 946,1232 Q975,1165 975,1090 Q975,1043 964,1009 Q951,970 927,931 Q904,895 856,845 Q811,798 743,741 L1008,508 Q1017,520 1021,547 Q1026,577 1030,614 Q1034,653 1036,698 Q1038,758 1038,786 L1274,786 Q1274,625 1247,508 Q1220,392 1190,348 L1423,143 L1280,-25 L1061,170 Q983,83 861,30 Q734,-25 592,-25 Q485,-25 395,7 Q309,37 244,92 Q180,146 145,215 Q111,283 111,363 M356,367 Q356,325 377,295 Q400,262 430,243 Q464,221 505,211 Q545,201 592,201 Q680,201 760,237 Q840,273 889,322 L563,606 L458,515 Q415,477 395,454 Q372,428 365,409 Q356,386 356,367 M430,1092 Q430,1039 468,996 Q500,960 578,887 Q626,928 660,962 Q695,997 709,1016 Q726,1039 730,1056 Q735,1076 735,1090 Q735,1158 686,1195 Q636,1233 582,1233 Q524,1233 477,1194 Q430,1155 430,1092"/> 
            <glyph glyph-name="'" unicode="&#x27;" horiz-adv-x="299" d=" M82,930 L82,1434 L299,1434 L299,930"/> 
            <glyph glyph-name="(" unicode="&#x28;" horiz-adv-x="602" d=" M98,604 Q98,752 125,890 Q153,1032 195,1150 Q240,1276 292,1374 Q347,1479 401,1554 L602,1434 Q556,1370 510,1282 Q460,1188 425,1087 Q388,983 364,858 Q340,735 340,604 Q340,470 364,349 Q389,224 425,121 Q460,20 510,-74 Q554,-158 602,-225 L401,-348 Q348,-273 294,-172 Q242,-74 197,52 Q152,177 126,313 Q98,458 98,604"/> 
            <glyph glyph-name=")" unicode="&#x29;" horiz-adv-x="541" d=" M37,-225 Q85,-158 129,-74 Q179,20 214,121 Q250,224 275,349 Q299,470 299,604 Q299,735 275,858 Q251,983 214,1087 Q179,1188 129,1282 Q83,1370 37,1434 L238,1554 Q292,1479 347,1374 Q399,1276 444,1150 Q486,1032 514,890 Q541,752 541,604 Q541,458 513,313 Q487,177 442,52 Q397,-74 345,-172 Q291,-273 238,-348"/> 
            <glyph glyph-name="*" unicode="&#x2A;" horiz-adv-x="803" d=" M12,1110 L68,1272 L322,1188 L322,1458 L494,1458 L494,1188 L748,1272 L803,1110 L543,1028 L700,813 L559,713 L408,928 L256,713 L115,813 L272,1028"/> 
            <glyph glyph-name="+" unicode="&#x2B;" horiz-adv-x="1018" d=" M47,389 L47,618 L410,618 L410,995 L655,995 L655,618 L1018,618 L1018,389 L655,389 L655,0 L410,0 L410,389"/> 
            <glyph glyph-name="," unicode="&#x2C;" horiz-adv-x="408" d=" M41,-285 L203,199 L408,127 L229,-350"/> 
            <glyph glyph-name="-" unicode="&#x2D;" horiz-adv-x="614" d=" M68,389 L68,623 L614,623 L614,389"/> 
            <glyph glyph-name="." unicode="&#x2E;" horiz-adv-x="430" d=" M106,137 Q106,204 154,252 Q201,299 268,299 Q336,299 383,252 Q430,205 430,137 Q430,70 383,23 Q335,-25 268,-25 Q202,-25 154,23 Q106,71 106,137"/> 
            <glyph glyph-name="/" unicode="&#x2F;" horiz-adv-x="1028" d=" M12,-201 L831,1638 L1028,1550 L209,-289"/> 
            <glyph glyph-name="0" unicode="&#x30;" horiz-adv-x="1159" d=" M82,717 Q82,862 115,996 Q149,1133 215,1233 Q283,1336 384,1397 Q485,1458 623,1458 Q760,1458 860,1397 Q961,1335 1027,1233 Q1092,1132 1126,996 Q1159,862 1159,717 Q1159,570 1126,437 Q1093,303 1027,201 Q961,99 860,37 Q759,-25 623,-25 Q487,-25 384,37 Q283,98 215,201 Q148,301 115,437 Q82,570 82,717 M328,717 Q328,612 346,519 Q365,423 401,356 Q439,286 494,246 Q550,205 623,205 Q696,205 752,246 Q806,286 843,356 Q877,421 896,519 Q913,607 913,717 Q913,826 896,914 Q877,1012 843,1077 Q805,1149 752,1188 Q696,1229 623,1229 Q550,1229 494,1188 Q440,1148 401,1077 Q365,1010 346,914 Q328,821 328,717"/> 
            <glyph glyph-name="1" unicode="&#x31;" horiz-adv-x="672" d=" M33,1085 L469,1434 L672,1434 L672,0 L426,0 L426,1106 L174,905"/> 
            <glyph glyph-name="2" unicode="&#x32;" horiz-adv-x="1026" d=" M82,0 L608,668 Q617,680 655,726 Q687,765 711,802 Q738,843 756,894 Q774,944 774,1001 Q774,1097 718,1162 Q660,1229 557,1229 Q460,1229 393,1168 Q327,1108 305,1020 L86,1100 Q108,1168 145,1230 Q185,1296 243,1345 Q302,1395 382,1426 Q464,1458 567,1458 Q680,1458 764,1422 Q849,1386 905,1325 Q963,1262 991,1183 Q1020,1101 1020,1014 Q1020,945 1006,892 Q991,835 972,791 Q954,751 931,712 Q909,676 895,659 L565,233 L1026,233 L1026,0"/> 
            <glyph glyph-name="3" unicode="&#x33;" horiz-adv-x="1073" d=" M76,307 L276,424 Q291,385 315,346 Q339,307 377,275 Q414,244 464,224 Q512,205 582,205 Q695,205 761,259 Q827,313 827,406 Q827,459 805,496 Q784,531 745,556 Q709,579 663,591 Q620,602 567,602 L465,602 L465,827 L543,827 Q656,827 723,873 Q791,920 791,1020 Q791,1115 731,1172 Q671,1229 575,1229 Q529,1229 486,1213 Q448,1199 417,1174 Q390,1153 366,1118 Q343,1085 332,1055 L119,1155 Q144,1213 180,1263 Q219,1318 275,1360 Q333,1404 407,1431 Q482,1458 578,1458 Q673,1458 760,1427 Q842,1398 905,1341 Q966,1286 1002,1208 Q1038,1130 1038,1038 Q1038,972 1022,924 Q1006,874 980,837 Q954,798 923,772 Q894,747 862,727 Q902,715 941,687 Q980,659 1009,620 Q1037,582 1056,525 Q1073,474 1073,403 Q1073,305 1035,224 Q998,146 930,90 Q864,36 772,5 Q682,-25 578,-25 Q474,-25 390,4 Q308,32 245,79 Q181,126 140,185 Q99,243 76,307"/> 
            <glyph glyph-name="4" unicode="&#x34;" horiz-adv-x="1153" d=" M-8,311 L721,1434 L995,1434 L995,541 L1153,541 L1153,311 L995,311 L995,0 L750,0 L750,311 M393,541 L754,541 L754,1096"/> 
            <glyph glyph-name="5" unicode="&#x35;" horiz-adv-x="1110" d=" M98,307 L303,424 Q318,385 347,341 Q373,302 412,271 Q450,241 496,223 Q542,205 602,205 Q666,205 712,225 Q759,246 794,282 Q826,316 845,367 Q862,414 862,473 Q862,588 790,663 Q719,737 565,737 Q444,737 343,694 Q241,650 172,604 L172,1434 L1094,1434 L1094,1200 L418,1200 L418,930 Q452,944 507,953 Q565,963 618,963 Q716,963 804,933 Q894,902 961,843 Q1028,783 1069,691 Q1110,598 1110,477 Q1110,348 1065,253 Q1020,158 947,96 Q877,36 782,5 Q690,-25 596,-25 Q503,-25 421,3 Q346,29 280,77 Q215,125 171,182 Q125,242 98,307"/> 
            <glyph glyph-name="6" unicode="&#x36;" horiz-adv-x="1083" d=" M80,459 Q80,551 106,628 Q133,708 160,754 L208,836 L310,1006 L451,1236 L610,1499 L815,1372 L549,940 Q559,943 575,945 Q583,946 608,946 Q712,946 801,904 Q888,863 951,795 Q1015,727 1049,640 Q1083,554 1083,461 Q1083,368 1049,282 Q1015,195 948,127 Q881,59 789,17 Q696,-25 582,-25 Q468,-25 374,16 Q283,56 215,125 Q150,191 115,280 Q80,368 80,459 M328,461 Q328,399 347,354 Q367,307 401,274 Q436,241 482,223 Q528,205 582,205 Q634,205 681,223 Q728,241 762,274 Q796,307 816,354 Q836,402 836,461 Q836,517 816,566 Q796,614 762,647 Q728,680 681,698 Q632,717 582,717 Q531,717 482,698 Q436,680 401,647 Q366,614 347,566 Q328,519 328,461"/> 
            <glyph glyph-name="7" unicode="&#x37;" horiz-adv-x="1098" d=" M74,1200 L74,1434 L1098,1434 L330,-49 L121,59 L711,1200"/> 
            <glyph glyph-name="8" unicode="&#x38;" horiz-adv-x="1081" d=" M98,424 Q98,490 117,550 Q134,605 165,648 Q197,693 229,718 Q264,745 299,762 Q274,778 242,808 Q212,837 190,870 Q171,899 154,950 Q139,995 139,1051 Q139,1125 168,1200 Q197,1275 253,1331 Q312,1390 393,1423 Q478,1458 590,1458 Q701,1458 786,1423 Q869,1389 927,1331 Q983,1275 1012,1200 Q1040,1128 1040,1051 Q1040,992 1026,950 Q1010,902 989,870 Q966,834 938,808 Q906,778 881,762 Q909,748 949,718 Q983,692 1015,648 Q1046,605 1063,550 Q1081,493 1081,424 Q1081,332 1049,252 Q1017,173 952,109 Q888,46 798,11 Q706,-25 590,-25 Q474,-25 382,11 Q291,47 227,109 Q163,171 131,252 Q98,334 98,424 M346,426 Q346,382 361,342 Q375,303 408,269 Q439,237 483,219 Q528,201 590,201 Q651,201 696,219 Q742,237 772,269 Q803,302 818,342 Q834,385 834,426 Q834,466 818,509 Q803,549 772,580 Q741,611 696,629 Q651,647 590,647 Q528,647 483,629 Q440,612 408,580 Q375,547 361,509 Q346,468 346,426 M383,1042 Q383,954 443,903 Q503,852 590,852 Q676,852 736,903 Q797,955 797,1042 Q797,1130 736,1182 Q676,1233 590,1233 Q503,1233 443,1182 Q383,1131 383,1042"/> 
            <glyph glyph-name="9" unicode="&#x39;" horiz-adv-x="1075" d=" M72,882 Q72,1064 107,1152 Q142,1241 207,1307 Q272,1374 366,1416 Q459,1458 573,1458 Q688,1458 781,1416 Q875,1374 940,1307 Q1004,1241 1040,1153 Q1075,1066 1075,977 Q1075,886 1049,809 Q1023,732 993,680 L942,594 L839,422 L700,195 L549,-57 L344,70 L606,494 Q590,489 580,488 Q572,487 547,487 Q442,487 354,529 Q269,569 204,639 Q142,705 107,794 M319,973 Q319,914 339,866 Q359,819 393,786 Q428,753 474,735 Q520,717 573,717 Q626,717 673,735 Q720,753 754,786 Q788,819 808,866 Q827,911 827,973 Q827,1031 808,1078 Q788,1126 754,1159 Q720,1192 673,1210 Q624,1229 573,1229 Q523,1229 474,1210 Q428,1192 393,1159 Q358,1126 339,1078 Q319,1029 319,973"/> 
            <glyph glyph-name=":" unicode="&#x3A;" horiz-adv-x="442" d=" M119,137 Q119,205 166,252 Q213,299 281,299 Q348,299 395,252 Q442,205 442,137 Q442,70 395,23 Q347,-25 281,-25 Q214,-25 166,23 Q119,70 119,137 M119,834 Q119,901 166,948 Q213,995 281,995 Q348,995 395,948 Q442,901 442,834 Q442,766 395,719 Q348,672 281,672 Q213,672 166,719 Q119,766 119,834"/> 
            <glyph glyph-name=";" unicode="&#x3B;" horiz-adv-x="412" d=" M41,-285 L203,199 L408,127 L229,-350 M86,831 Q86,899 134,947 Q182,995 248,995 Q316,995 364,947 Q412,899 412,831 Q412,766 364,718 Q316,670 248,670 Q182,670 134,718 Q86,766 86,831"/> 
            <glyph glyph-name="&lt;" unicode="&#x3C;" horiz-adv-x="983" d=" M37,453 L37,657 L983,1061 L983,809 L362,555 L983,299 L983,47"/> 
            <glyph glyph-name="=" unicode="&#x3D;" horiz-adv-x="973" d=" M92,238 L92,463 L973,463 L973,238 M92,618 L92,844 L973,844 L973,618"/> 
            <glyph glyph-name="&gt;" unicode="&#x3E;" horiz-adv-x="1036" d=" M90,47 L90,299 L711,555 L90,809 L90,1061 L1036,657 L1036,453"/> 
            <glyph glyph-name="?" unicode="&#x3F;" horiz-adv-x="920" d=" M33,1124 Q55,1190 92,1246 Q134,1311 187,1354 Q246,1402 316,1430 Q387,1458 481,1458 Q572,1458 654,1426 Q736,1394 794,1339 Q851,1285 886,1207 Q920,1132 920,1040 Q920,974 902,925 Q883,873 854,831 Q832,799 782,749 Q750,717 692,666 L650,627 Q636,612 628,599 Q619,583 618,568 Q616,544 616,524 L616,420 L373,420 L373,571 Q373,621 383,654 Q393,687 415,717 Q435,744 472,775 L557,848 Q606,890 639,931 Q674,974 674,1038 Q674,1125 616,1175 Q558,1225 481,1225 Q440,1225 401,1208 Q363,1191 334,1165 Q302,1136 280,1103 Q258,1071 242,1028 M334,137 Q334,205 381,252 Q428,299 496,299 Q563,299 610,252 Q657,205 657,137 Q657,70 610,23 Q562,-25 496,-25 Q429,-25 381,23 Q334,70 334,137"/> 
            <glyph glyph-name="@" unicode="&#x40;" horiz-adv-x="1538" d=" M98,564 Q98,870 157,1006 Q216,1142 315,1241 Q416,1342 552,1400 Q687,1458 846,1458 Q998,1458 1124,1403 Q1252,1348 1343,1250 Q1437,1150 1487,1019 Q1538,885 1538,727 Q1538,605 1507,521 Q1477,441 1432,394 Q1388,349 1333,330 Q1278,311 1235,311 Q1173,311 1109,343 Q1047,374 1026,446 Q988,388 924,350 Q858,311 774,311 Q722,311 668,330 Q617,348 577,382 Q537,416 513,464 Q489,512 489,571 Q489,629 514,679 Q536,724 580,761 Q619,794 674,813 Q726,831 782,831 Q842,831 899,813 Q955,795 993,762 L993,797 Q993,837 978,867 Q964,895 938,916 Q913,936 882,945 Q850,954 819,954 Q772,954 718,937 Q659,918 608,879 L526,1026 Q577,1062 658,1093 Q735,1122 831,1122 Q908,1122 967,1102 Q1028,1081 1072,1042 Q1118,1001 1142,948 Q1167,894 1167,825 L1167,578 Q1167,527 1184,499 Q1201,471 1247,471 Q1258,471 1274,475 Q1293,480 1312,503 Q1331,527 1346,575 Q1360,621 1360,715 Q1360,858 1320,963 Q1279,1071 1211,1142 Q1141,1215 1049,1250 Q954,1286 846,1286 Q725,1286 620,1242 Q516,1198 439,1121 Q362,1044 319,941 Q276,839 276,717 Q276,598 319,494 Q364,386 438,312 Q516,234 620,191 Q726,147 850,147 Q953,147 1034,173 Q1118,200 1161,225 L1233,72 Q1165,35 1070,6 Q968,-25 848,-25 Q692,-25 554,34 Q418,92 316,193 Q216,291 157,428 M674,578 Q674,532 711,504 Q749,475 817,475 Q887,475 931,503 Q970,528 993,559 L993,618 Q971,640 928,658 Q884,676 823,676 Q751,676 712,648 Q674,621 674,578"/> 
            <glyph glyph-name="A" unicode="&#x41;" horiz-adv-x="1376" d=" M12,0 L569,1434 L819,1434 L1376,0 L1128,0 L997,340 L391,340 L260,0 M479,565 L909,565 L694,1124"/> 
            <glyph glyph-name="B" unicode="&#x42;" horiz-adv-x="1147" d=" M152,0 L152,1434 L616,1434 Q702,1434 786,1411 Q868,1389 932,1340 Q995,1292 1034,1219 Q1073,1146 1073,1042 Q1073,969 1055,918 Q1037,868 1011,834 Q986,802 961,783 Q943,770 924,760 Q929,759 968,741 Q1002,725 1043,686 Q1084,647 1115,584 Q1147,520 1147,426 Q1147,329 1110,251 Q1073,172 1009,117 Q944,61 856,31 Q765,0 668,0 M397,233 L659,233 Q759,233 829,278 Q897,322 897,424 Q897,526 829,570 Q761,614 659,614 L397,614 M397,848 L608,848 Q711,848 767,888 Q823,928 823,1020 Q823,1119 762,1159 Q700,1200 608,1200 L397,1200"/> 
            <glyph glyph-name="C" unicode="&#x43;" horiz-adv-x="1348" d=" M70,556 Q70,878 125,1012 Q181,1149 277,1246 Q374,1345 508,1402 Q639,1458 795,1458 Q894,1458 973,1438 Q1053,1418 1122,1384 Q1196,1348 1241,1312 Q1295,1269 1327,1233 L1161,1071 Q1107,1131 1017,1179 Q923,1229 797,1229 Q692,1229 602,1188 Q518,1149 452,1076 Q389,1005 354,913 Q319,820 319,717 Q319,613 354,520 Q388,430 453,357 Q516,286 604,246 Q694,205 799,205 Q928,205 1027,259 Q1127,314 1184,381 L1348,219 Q1310,174 1253,129 Q1198,86 1128,51 Q1061,18 975,-4 Q891,-25 797,-25 Q642,-25 508,32 Q373,90 277,187 Q182,284 125,422"/> 
            <glyph glyph-name="D" unicode="&#x44;" horiz-adv-x="1323" d=" M152,0 L152,1434 L614,1434 Q768,1434 901,1379 Q1032,1325 1125,1230 Q1218,1135 1271,1004 Q1323,875 1323,717 Q1323,559 1271,430 Q1218,299 1125,204 Q1030,107 901,54 Q770,0 614,0 M397,233 L618,233 Q723,233 807,272 Q888,309 950,378 Q1009,443 1041,531 Q1073,619 1073,717 Q1073,813 1041,903 Q1009,992 950,1057 Q891,1122 807,1161 Q723,1200 618,1200 L397,1200"/> 
            <glyph glyph-name="E" unicode="&#x45;" horiz-adv-x="1032" d=" M152,0 L152,1434 L1020,1434 L1020,1200 L397,1200 L397,852 L971,852 L971,618 L397,618 L397,233 L1032,233 L1032,0"/> 
            <glyph glyph-name="F" unicode="&#x46;" horiz-adv-x="1001" d=" M152,0 L152,1434 L1001,1434 L1001,1200 L397,1200 L397,850 L961,850 L961,616 L397,616 L397,0"/> 
            <glyph glyph-name="G" unicode="&#x47;" horiz-adv-x="1354" d=" M70,719 Q70,877 127,1012 Q183,1145 284,1246 Q383,1345 519,1402 Q653,1458 813,1458 Q904,1458 983,1440 Q1062,1422 1130,1392 Q1199,1361 1252,1323 Q1303,1286 1343,1243 L1176,1079 Q1125,1138 1029,1184 Q936,1229 817,1229 Q708,1229 615,1188 Q529,1150 459,1077 Q395,1010 356,914 Q319,822 319,719 Q319,615 357,521 Q394,429 463,357 Q530,286 625,246 Q721,205 834,205 Q904,205 981,221 Q1063,238 1112,274 L1112,578 L786,578 L786,807 L1354,807 L1354,156 Q1265,76 1122,25 Q981,-25 829,-25 Q667,-25 529,32 Q389,90 289,187 Q187,286 128,423 Q70,558 70,719"/> 
            <glyph glyph-name="H" unicode="&#x48;" horiz-adv-x="1255" d=" M152,0 L152,1434 L397,1434 L397,850 L1010,850 L1010,1434 L1255,1434 L1255,0 L1010,0 L1010,616 L397,616 L397,0"/> 
            <glyph glyph-name="I" unicode="&#x49;" horiz-adv-x="426" d=" M180,0 L180,1434 L426,1434 L426,0"/> 
            <glyph glyph-name="J" unicode="&#x4A;" horiz-adv-x="915" d=" M6,215 L186,367 Q236,290 295,250 Q356,209 440,209 Q500,209 542,228 Q585,247 613,280 Q640,312 655,353 Q670,395 670,442 L670,1434 L915,1434 L915,451 Q915,337 881,250 Q847,162 783,100 Q719,38 634,7 Q546,-25 442,-25 Q358,-25 286,-3 Q215,19 164,52 Q108,89 72,129 Q31,175 6,215"/> 
            <glyph glyph-name="K" unicode="&#x4B;" horiz-adv-x="1286" d=" M152,0 L152,1434 L397,1434 L397,791 L909,1434 L1217,1434 L655,729 L1286,0 L961,0 L397,647 L397,0"/> 
            <glyph glyph-name="L" unicode="&#x4C;" horiz-adv-x="1008" d=" M152,0 L152,1434 L397,1434 L397,233 L1008,233 L1008,0"/> 
            <glyph glyph-name="M" unicode="&#x4D;" horiz-adv-x="1540" d=" M152,0 L152,1434 L379,1434 L846,713 L1313,1434 L1540,1434 L1540,0 L1294,0 L1294,963 L846,281 L397,963 L397,0"/> 
            <glyph glyph-name="N" unicode="&#x4E;" horiz-adv-x="1335" d=" M152,0 L152,1434 L373,1434 L1090,446 L1090,1434 L1335,1434 L1335,0 L1114,0 L397,985 L397,0"/> 
            <glyph glyph-name="O" unicode="&#x4F;" horiz-adv-x="1520" d=" M70,557 Q70,877 124,1012 Q178,1148 275,1246 Q372,1345 505,1402 Q635,1458 795,1458 Q952,1458 1083,1402 Q1216,1345 1314,1246 Q1411,1148 1465,1012 Q1520,875 1520,717 Q1520,560 1465,422 Q1410,284 1314,187 Q1218,90 1083,32 Q950,-25 795,-25 Q637,-25 505,32 Q370,90 275,187 Q179,284 124,422 M319,717 Q319,610 353,520 Q388,428 449,359 Q510,290 598,250 Q688,209 795,209 Q901,209 991,250 Q1080,291 1141,359 Q1200,426 1236,520 Q1270,610 1270,717 Q1270,823 1236,913 Q1200,1007 1141,1074 Q1079,1144 991,1184 Q901,1225 795,1225 Q688,1225 598,1184 Q512,1145 449,1074 Q388,1005 353,913 Q319,823 319,717"/> 
            <glyph glyph-name="P" unicode="&#x50;" horiz-adv-x="1114" d=" M152,0 L152,1434 L639,1434 Q744,1434 834,1399 Q920,1365 984,1303 Q1044,1244 1080,1157 Q1114,1074 1114,975 Q1114,876 1080,793 Q1044,706 984,647 Q920,585 834,551 Q744,516 639,516 L397,516 L397,0 M397,750 L608,750 Q736,750 800,811 Q864,872 864,975 Q864,1078 800,1139 Q736,1200 608,1200 L397,1200"/> 
            <glyph glyph-name="Q" unicode="&#x51;" horiz-adv-x="1595" d=" M70,557 Q70,877 124,1012 Q178,1148 275,1246 Q372,1345 505,1402 Q635,1458 795,1458 Q952,1458 1083,1402 Q1216,1345 1314,1246 Q1411,1148 1465,1012 Q1520,875 1520,717 Q1520,591 1486,485 Q1450,372 1393,285 L1595,111 L1438,-70 L1227,113 Q1138,48 1028,11 Q920,-25 795,-25 Q637,-25 505,32 Q370,90 275,187 Q179,284 124,422 M319,717 Q319,610 353,520 Q388,427 450,359 Q513,290 599,250 Q687,209 795,209 Q868,209 926,226 Q988,244 1040,274 L793,492 L950,670 L1204,449 Q1270,568 1270,715 Q1270,820 1236,912 Q1200,1008 1140,1074 Q1076,1144 989,1184 Q899,1225 795,1225 Q687,1225 599,1184 Q515,1145 450,1074 Q388,1006 353,913 Q319,823 319,717"/> 
            <glyph glyph-name="R" unicode="&#x52;" horiz-adv-x="1137" d=" M152,0 L152,1434 L623,1434 Q728,1434 817,1401 Q906,1368 968,1309 Q1028,1252 1064,1166 Q1098,1085 1098,983 Q1098,826 1015,711 Q932,596 778,557 L1137,0 L850,0 L510,541 L397,541 L397,0 M397,774 L592,774 Q709,774 779,827 Q848,880 848,987 Q848,1094 779,1147 Q709,1200 592,1200 L397,1200"/> 
            <glyph glyph-name="S" unicode="&#x53;" horiz-adv-x="1118" d=" M94,268 L279,424 Q305,382 337,347 Q374,306 414,279 Q462,246 510,228 Q561,209 629,209 Q672,209 714,218 Q757,227 791,248 Q828,270 847,302 Q868,336 868,383 Q868,430 849,459 Q828,491 795,514 Q759,539 712,558 Q687,568 606,598 Q530,626 449,664 Q364,704 304,753 Q239,806 199,874 Q158,944 158,1040 Q158,1124 190,1198 Q222,1272 284,1331 Q345,1389 430,1423 Q517,1458 623,1458 Q709,1458 778,1438 Q848,1418 909,1384 Q969,1351 1015,1311 Q1058,1274 1094,1231 L924,1063 Q905,1087 868,1122 Q835,1153 799,1174 Q766,1193 717,1210 Q673,1225 625,1225 Q532,1225 470,1176 Q408,1127 408,1049 Q408,998 434,965 Q462,929 505,904 Q546,880 604,858 L717,815 Q799,784 869,749 Q943,712 997,664 Q1052,615 1085,547 Q1118,480 1118,387 Q1118,284 1078,207 Q1037,128 971,78 Q902,26 815,1 Q725,-25 629,-25 Q527,-25 443,1 Q363,26 294,68 Q229,108 178,162 Q131,212 94,268"/> 
            <glyph glyph-name="T" unicode="&#x54;" horiz-adv-x="1065" d=" M29,1200 L29,1434 L1065,1434 L1065,1200 L670,1200 L670,0 L424,0 L424,1200"/> 
            <glyph glyph-name="U" unicode="&#x55;" horiz-adv-x="1257" d=" M152,520 L152,1434 L397,1434 L397,551 Q397,398 474,303 Q550,209 705,209 Q859,209 935,303 Q1012,398 1012,551 L1012,1434 L1257,1434 L1257,520 Q1257,398 1219,302 Q1179,201 1108,130 Q1034,56 934,16 Q831,-25 705,-25 Q578,-25 475,16 Q375,56 301,130 Q230,201 190,302 Q152,398 152,520"/> 
            <glyph glyph-name="V" unicode="&#x56;" horiz-adv-x="1286" d=" M4,1434 L272,1434 L653,514 L1030,1434 L1286,1434 L645,-49"/> 
            <glyph glyph-name="W" unicode="&#x57;" horiz-adv-x="2005" d=" M8,1434 L287,1434 L590,573 L915,1434 L1118,1434 L1438,573 L1749,1434 L2005,1434 L1440,-49 L1010,1026 L573,-49"/> 
            <glyph glyph-name="X" unicode="&#x58;" horiz-adv-x="1229" d=" M25,0 L487,741 L53,1434 L344,1434 L637,938 L926,1434 L1196,1434 L762,741 L1229,0 L936,0 L614,541 L301,0"/> 
            <glyph glyph-name="Y" unicode="&#x59;" horiz-adv-x="1241" d=" M16,1434 L287,1434 L637,793 L987,1434 L1241,1434 L752,565 L752,0 L506,0 L506,565"/> 
            <glyph glyph-name="Z" unicode="&#x5A;" horiz-adv-x="1194" d=" M29,0 L778,1200 L98,1200 L98,1434 L1194,1434 L449,233 L1153,233 L1153,0"/> 
            <glyph glyph-name="[" unicode="&#x5B;" horiz-adv-x="610" d=" M152,-471 L152,1548 L610,1548 L610,1352 L377,1352 L377,-274 L610,-274 L610,-471"/> 
            <glyph glyph-name="\" unicode="&#x5C;" horiz-adv-x="1053" d=" M37,1550 L233,1638 L1053,-201 L856,-289"/> 
            <glyph glyph-name="]" unicode="&#x5D;" horiz-adv-x="524" d=" M66,-274 L299,-274 L299,1352 L66,1352 L66,1548 L524,1548 L524,-471 L66,-471"/> 
            <glyph glyph-name="^" unicode="&#x5E;" horiz-adv-x="1079" d=" M20,717 L442,1548 L657,1548 L1079,717 L823,717 L551,1278 L274,717"/> 
            <glyph glyph-name="_" unicode="&#x5F;" horiz-adv-x="938" d=" M86,-238 L938,-238 L938,-471 L86,-471"/> 
            <glyph glyph-name="`" unicode="&#x60;" horiz-adv-x="516" d=" M0,1382 L166,1544 L516,1188 L358,1038"/> 
            <glyph glyph-name="a" unicode="&#x61;" horiz-adv-x="975" d=" M78,221 Q78,369 108,429 Q139,490 189,532 Q240,575 312,599 Q382,623 465,623 Q532,623 604,605 Q678,586 729,553 L729,608 Q729,657 709,688 Q689,719 657,740 Q625,761 589,768 Q549,776 516,776 Q465,776 391,760 Q312,743 229,705 L150,907 Q227,943 325,969 Q423,995 539,995 Q742,995 858,897 Q975,798 975,633 L975,0 L748,0 L748,123 Q702,60 617,17 Q534,-25 432,-25 Q366,-25 298,-3 Q234,18 184,60 Q134,102 106,162 M328,305 Q328,265 344,242 Q361,217 386,204 Q414,189 442,185 Q475,180 500,180 Q586,180 641,216 Q695,251 729,293 L729,393 Q679,419 623,430 Q563,442 516,442 Q482,442 451,435 Q415,427 390,413 Q363,398 345,371 Q328,346 328,305"/> 
            <glyph glyph-name="b" unicode="&#x62;" horiz-adv-x="1145" d=" M152,0 L152,1548 L397,1548 L397,868 Q434,914 502,955 Q569,995 674,995 Q765,995 852,957 Q938,920 1002,852 Q1067,784 1106,691 Q1145,598 1145,485 Q1145,376 1106,281 Q1067,187 1002,119 Q935,49 853,13 Q766,-25 674,-25 Q563,-25 489,22 Q416,68 379,127 L379,0 M397,340 Q427,287 485,246 Q543,205 633,205 Q753,205 824,285 Q895,365 895,485 Q895,606 824,686 Q753,766 633,766 Q543,766 485,725 Q427,684 397,631"/> 
            <glyph glyph-name="c" unicode="&#x63;" horiz-adv-x="981" d=" M57,485 Q57,591 98,685 Q139,778 210,848 Q280,916 376,956 Q471,995 580,995 Q653,995 713,979 Q776,962 824,936 Q877,907 913,878 Q951,847 977,815 L807,664 Q771,706 713,735 Q651,766 580,766 Q519,766 467,743 Q414,720 381,682 Q347,643 327,593 Q307,542 307,485 Q307,429 327,377 Q347,324 382,288 Q419,249 468,227 Q516,205 582,205 Q667,205 729,243 Q790,280 819,324 L981,160 Q955,127 918,96 Q884,67 827,37 Q780,12 715,-7 Q654,-25 580,-25 Q469,-25 376,15 Q279,57 210,124 Q138,195 98,286 Q57,380 57,485"/> 
            <glyph glyph-name="d" unicode="&#x64;" horiz-adv-x="1051" d=" M57,485 Q57,598 96,691 Q135,784 200,852 Q264,920 350,957 Q437,995 528,995 Q633,995 700,955 Q768,914 805,868 L805,1548 L1051,1548 L1051,0 L823,0 L823,127 Q786,68 713,22 Q639,-25 528,-25 Q436,-25 349,13 Q267,49 200,119 Q135,187 96,281 Q57,376 57,485 M307,485 Q307,365 378,285 Q449,205 569,205 Q659,205 717,246 Q775,287 805,340 L805,631 Q775,684 717,725 Q659,766 569,766 Q449,766 378,686 Q307,606 307,485"/> 
            <glyph glyph-name="e" unicode="&#x65;" horiz-adv-x="1034" d=" M57,489 Q57,596 94,686 Q132,778 196,847 Q258,914 350,955 Q439,995 545,995 Q647,995 734,958 Q826,919 890,855 Q955,790 995,695 Q1034,602 1034,489 L1034,451 Q1034,435 1032,397 L307,397 Q314,366 337,328 Q360,291 394,265 Q432,236 477,219 Q523,201 584,201 Q647,201 717,223 Q787,245 846,299 L969,115 Q907,64 809,20 Q709,-25 580,-25 Q468,-25 374,14 Q280,53 208,123 Q138,192 97,287 Q57,380 57,489 M307,575 L788,575 Q786,605 771,641 Q756,676 726,706 Q696,736 651,754 Q606,772 545,772 Q486,772 442,754 Q402,737 370,707 Q341,679 325,643 Q308,605 307,575"/> 
            <glyph glyph-name="f" unicode="&#x66;" horiz-adv-x="788" d=" M33,750 L33,971 L225,971 L225,1208 Q225,1308 257,1378 Q289,1447 340,1491 Q389,1533 454,1553 Q519,1573 578,1573 Q633,1573 689,1560 Q746,1547 788,1522 L696,1315 Q678,1328 653,1335 Q624,1343 600,1343 Q582,1343 559,1337 Q536,1331 517,1315 Q498,1298 484,1270 Q471,1243 471,1196 L471,971 L709,971 L709,750 L471,750 L471,0 L225,0 L225,750"/> 
            <glyph glyph-name="g" unicode="&#x67;" horiz-adv-x="1051" d=" M57,485 Q57,598 96,691 Q135,784 200,852 Q264,920 350,957 Q437,995 528,995 Q639,995 712,948 Q783,902 823,844 L823,971 L1051,971 L1051,-8 Q1051,-137 1008,-227 Q964,-319 892,-379 Q822,-438 726,-467 Q631,-496 535,-496 Q454,-496 384,-478 Q310,-459 254,-434 Q189,-405 147,-375 Q108,-347 68,-311 L207,-123 Q265,-179 346,-222 Q429,-266 539,-266 Q672,-266 738,-197 Q805,-127 805,-16 L805,100 Q795,87 770,63 Q752,46 714,23 Q680,2 634,-11 Q586,-25 528,-25 Q437,-25 350,13 Q266,50 200,119 Q135,187 96,280 Q57,373 57,485 M307,485 Q307,365 378,285 Q449,205 569,205 Q616,205 653,217 Q688,228 720,249 Q747,266 770,293 Q785,311 805,340 L805,631 Q775,684 717,725 Q659,766 569,766 Q449,766 378,686 Q307,606 307,485"/> 
            <glyph glyph-name="h" unicode="&#x68;" horiz-adv-x="1028" d=" M152,0 L152,1548 L397,1548 L397,854 Q436,909 503,951 Q573,995 674,995 Q744,995 808,971 Q870,948 922,899 Q969,855 999,784 Q1028,715 1028,629 L1028,0 L782,0 L782,567 Q782,618 767,656 Q751,696 725,719 Q697,744 666,755 Q636,766 596,766 Q554,766 524,754 Q495,742 469,723 Q446,706 427,682 Q408,658 397,639 L397,0"/> 
            <glyph glyph-name="i" unicode="&#x69;" horiz-adv-x="446" d=" M123,1216 Q123,1352 170,1399 Q217,1446 285,1446 Q352,1446 399,1399 Q446,1352 446,1284 Q446,1216 399,1169 Q352,1122 285,1122 Q217,1122 123,1216 M162,0 L162,971 L408,971 L408,0"/> 
            <glyph glyph-name="j" unicode="&#x6A;" horiz-adv-x="557" d=" M-72,-432 L16,-225 Q56,-248 84,-257 Q112,-266 141,-266 Q154,-266 181,-261 Q204,-257 225,-236 Q245,-216 260,-175 Q274,-137 274,-66 L274,971 L520,971 L520,-88 Q520,-206 484,-286 Q449,-363 395,-411 Q344,-456 278,-476 Q212,-496 158,-496 Q102,-496 40,-479 Q-20,-462 -72,-432 M233,1217 Q233,1351 281,1399 Q328,1446 395,1446 Q463,1446 510,1399 Q557,1352 557,1284 Q557,1216 510,1169 Q463,1122 395,1122 Q328,1122 281,1169"/> 
            <glyph glyph-name="k" unicode="&#x6B;" horiz-adv-x="1092" d=" M152,0 L152,1548 L397,1548 L397,588 L745,971 L1063,971 L637,512 L1092,0 L768,0 L397,424 L397,0"/> 
            <glyph glyph-name="l" unicode="&#x6C;" horiz-adv-x="397" d=" M152,0 L152,1548 L397,1548 L397,0"/> 
            <glyph glyph-name="m" unicode="&#x6D;" horiz-adv-x="1589" d=" M123,0 L123,971 L352,971 L352,829 Q390,891 461,943 Q532,995 645,995 Q741,995 821,951 Q901,907 940,825 Q959,859 984,887 Q1010,916 1051,941 Q1090,965 1139,980 Q1188,995 1247,995 Q1322,995 1384,970 Q1447,944 1493,897 Q1539,850 1564,781 Q1589,713 1589,625 L1589,0 L1343,0 L1343,561 Q1343,766 1178,766 Q1097,766 1050,725 Q1003,684 979,641 L979,0 L733,0 L733,561 Q733,766 567,766 Q486,766 439,725 Q393,685 369,641 L369,0"/> 
            <glyph glyph-name="n" unicode="&#x6E;" horiz-adv-x="999" d=" M123,0 L123,971 L352,971 L352,829 Q368,856 394,886 Q420,916 457,940 Q499,967 540,980 Q586,995 645,995 Q714,995 779,971 Q841,948 893,899 Q942,853 971,784 Q999,718 999,629 L999,0 L754,0 L754,567 Q754,672 697,719 Q639,766 567,766 Q489,766 442,725 Q397,685 369,641 L369,0"/> 
            <glyph glyph-name="o" unicode="&#x6F;" horiz-adv-x="1094" d=" M57,485 Q57,593 97,685 Q138,780 208,848 Q278,917 373,956 Q468,995 575,995 Q684,995 778,956 Q872,917 943,848 Q1013,780 1054,685 Q1094,593 1094,485 Q1094,378 1054,286 Q1014,193 943,124 Q873,56 778,15 Q685,-25 575,-25 Q466,-25 373,15 Q278,56 208,124 Q138,193 97,286 Q57,378 57,485 M307,485 Q307,431 326,377 Q344,326 379,288 Q414,250 464,227 Q512,205 575,205 Q639,205 687,227 Q737,250 772,288 Q807,326 825,377 Q844,431 844,485 Q844,541 825,593 Q807,642 772,682 Q739,719 687,743 Q636,766 575,766 Q515,766 464,743 Q412,719 379,682 Q344,642 326,593 Q307,541 307,485"/> 
            <glyph glyph-name="p" unicode="&#x70;" horiz-adv-x="1116" d=" M123,-471 L123,971 L350,971 L350,844 Q388,900 464,949 Q535,995 647,995 Q737,995 824,957 Q910,920 974,852 Q1037,786 1077,691 Q1116,598 1116,485 Q1116,373 1077,280 Q1037,185 974,119 Q909,51 823,13 Q736,-25 645,-25 Q588,-25 540,-11 Q494,2 460,23 Q419,48 403,63 Q381,84 369,100 L369,-471 M369,340 Q399,287 457,246 Q515,205 604,205 Q725,205 796,285 Q866,364 866,485 Q866,607 796,686 Q725,766 604,766 Q515,766 457,725 Q399,684 369,631"/> 
            <glyph glyph-name="q" unicode="&#x71;" horiz-adv-x="1051" d=" M57,485 Q57,598 96,691 Q135,784 200,852 Q265,920 349,957 Q436,995 526,995 Q639,995 710,949 Q785,901 823,844 L823,971 L1051,971 L1051,-471 L805,-471 L805,100 Q795,87 770,63 Q752,46 714,23 Q680,2 634,-11 Q586,-25 528,-25 Q437,-25 350,13 Q266,50 200,119 Q135,187 96,280 Q57,373 57,485 M307,485 Q307,365 378,285 Q449,205 569,205 Q659,205 717,246 Q775,287 805,340 L805,631 Q775,684 717,725 Q659,766 569,766 Q449,766 378,686 Q307,606 307,485"/> 
            <glyph glyph-name="r" unicode="&#x72;" horiz-adv-x="788" d=" M123,0 L123,971 L356,971 L356,829 Q391,892 459,944 Q527,995 625,995 Q661,995 702,988 Q749,980 788,965 L702,743 Q679,755 652,760 Q622,766 590,766 Q504,766 451,724 Q397,681 369,635 L369,0"/> 
            <glyph glyph-name="s" unicode="&#x73;" horiz-adv-x="924" d=" M61,152 L199,330 Q227,304 253,283 Q282,260 321,238 Q358,217 404,204 Q452,190 506,190 Q570,190 624,213 Q676,235 676,285 Q676,309 660,325 Q646,340 620,350 Q595,360 558,368 Q506,379 483,385 Q409,401 351,423 Q285,448 236,482 Q183,519 154,566 Q123,616 123,682 Q123,741 151,800 Q177,855 231,900 Q286,945 360,970 Q435,995 535,995 Q664,995 757,956 Q850,917 905,877 L782,696 Q734,729 676,754 Q615,780 537,780 Q470,780 418,756 Q365,732 365,686 Q365,646 418,626 Q466,608 594,580 Q669,562 718,545 Q781,523 823,492 Q870,458 896,411 Q924,361 924,293 Q924,217 889,156 Q855,97 796,56 Q740,18 662,-4 Q586,-25 502,-25 Q427,-25 357,-9 Q297,5 236,31 Q180,55 136,87 Q89,121 61,152"/> 
            <glyph glyph-name="t" unicode="&#x74;" horiz-adv-x="801" d=" M45,750 L45,971 L236,971 L236,1260 L481,1260 L481,971 L774,971 L774,750 L481,750 L481,358 Q481,314 493,284 Q506,252 521,237 Q539,220 561,212 Q582,205 606,205 Q638,205 664,215 Q690,225 711,240 L801,39 Q759,11 696,-7 Q634,-25 569,-25 Q500,-25 436,0 Q377,23 330,70 Q283,117 260,178 Q236,241 236,319 L236,750"/> 
            <glyph glyph-name="u" unicode="&#x75;" horiz-adv-x="999" d=" M123,342 L123,971 L369,971 L369,410 Q369,301 418,253 Q468,205 551,205 Q629,205 676,241 Q725,279 754,324 L754,971 L999,971 L999,0 L770,0 L770,141 Q753,114 725,83 Q698,53 662,30 Q623,5 579,-9 Q529,-25 477,-25 Q412,-25 345,0 Q283,23 231,72 Q184,116 153,186 Q123,254 123,342"/> 
            <glyph glyph-name="v" unicode="&#x76;" horiz-adv-x="1032" d=" M4,971 L276,971 L522,442 L768,971 L1032,971 L518,-49"/> 
            <glyph glyph-name="w" unicode="&#x77;" horiz-adv-x="1565" d=" M8,971 L283,971 L483,473 L694,971 L901,971 L1106,473 L1315,971 L1565,971 L1096,-49 L784,643 L477,-49"/> 
            <glyph glyph-name="x" unicode="&#x78;" horiz-adv-x="1042" d=" M33,0 L393,502 L59,971 L348,971 L547,672 L741,971 L1022,971 L684,502 L1042,0 L750,0 L530,332 L311,0"/> 
            <glyph glyph-name="y" unicode="&#x79;" horiz-adv-x="1137" d=" M16,971 L289,971 L616,260 L872,971 L1137,971 L666,-217 Q636,-296 593,-350 Q549,-404 505,-436 Q460,-468 409,-482 Q358,-496 309,-496 Q226,-496 156,-465 Q90,-436 41,-393 L156,-203 Q194,-236 227,-252 Q255,-266 295,-266 Q354,-266 387,-233 Q422,-198 451,-123 L489,-23"/> 
            <glyph glyph-name="z" unicode="&#x7A;" horiz-adv-x="961" d=" M61,0 L543,741 L96,741 L96,971 L961,971 L479,229 L938,229 L938,0"/> 
            <glyph glyph-name="{" unicode="&#x7B;" horiz-adv-x="643" d=" M53,438 L53,618 Q85,618 129,625 Q166,631 195,652 Q222,672 241,715 Q258,753 258,825 L258,1272 Q258,1333 279,1384 Q301,1437 336,1471 Q374,1507 423,1528 Q470,1548 532,1548 L643,1548 L643,1327 Q615,1327 587,1322 Q563,1318 543,1301 Q524,1285 514,1256 Q504,1227 504,1176 L504,795 Q504,715 486,664 Q467,611 440,584 Q411,555 376,545 Q336,533 301,532 L301,524 Q340,522 376,512 Q411,502 440,473 Q467,446 486,393 Q504,342 504,262 L504,-98 Q504,-150 514,-179 Q524,-208 543,-224 Q563,-241 587,-245 Q615,-250 643,-250 L643,-471 L532,-471 Q470,-471 423,-451 Q374,-430 336,-394 Q301,-360 279,-307 Q258,-256 258,-195 L258,231 Q258,304 241,342 Q222,384 195,404 Q165,426 129,432 Q92,438 53,438"/> 
            <glyph glyph-name="|" unicode="&#x7C;" horiz-adv-x="385" d=" M147,-471 L147,1516 L385,1516 L385,-471"/> 
            <glyph glyph-name="}" unicode="&#x7D;" horiz-adv-x="664" d=" M74,-250 Q102,-250 130,-245 Q154,-241 174,-224 Q193,-208 203,-179 Q213,-150 213,-98 L213,262 Q213,345 230,393 Q249,446 276,473 Q304,501 341,512 Q377,522 416,524 L416,532 Q381,533 341,545 Q304,556 276,584 Q249,611 230,664 Q213,712 213,795 L213,1176 Q213,1227 203,1256 Q192,1287 174,1302 Q155,1318 130,1322 Q102,1327 74,1327 L74,1548 L184,1548 Q247,1548 294,1528 Q344,1507 381,1471 Q416,1437 438,1384 Q459,1333 459,1272 L459,825 Q459,753 476,715 Q495,672 522,652 Q550,631 588,625 Q632,618 664,618 L664,438 Q626,438 588,432 Q552,426 522,404 Q495,384 476,342 Q459,304 459,231 L459,-195 Q459,-256 438,-307 Q416,-360 381,-394 Q344,-430 294,-451 Q247,-471 184,-471 L74,-471"/> 
            <glyph glyph-name="~" unicode="&#x7E;" horiz-adv-x="961" d=" M41,637 Q86,748 167,808 Q248,868 342,868 Q391,868 433,853 Q473,839 512,820 L583,787 Q618,772 651,772 Q692,772 730,799 Q768,826 784,887 L961,776 Q922,678 843,612 Q765,547 659,547 Q608,547 565,562 Q525,576 485,595 L415,628 Q381,643 348,643 Q306,643 269,612 Q234,583 217,528"/> 
            <glyph glyph-name="¡" unicode="&#xA1;" horiz-adv-x="475" d=" M152,834 Q152,901 199,948 Q246,995 313,995 Q381,995 428,948 Q475,901 475,834 Q475,766 428,719 Q381,672 313,672 Q246,672 199,719 Q152,766 152,834 M186,-463 L197,561 L430,561 L440,-463"/> 
            <glyph glyph-name="¢" unicode="&#xA2;" horiz-adv-x="1067" d=" M143,485 Q143,586 177,670 Q213,759 270,822 Q333,891 411,933 Q493,977 588,989 L588,1167 L717,1167 L717,993 Q828,982 920,931 Q1012,880 1063,815 L893,664 Q866,696 817,725 Q772,751 717,762 L717,209 Q787,220 835,255 Q884,290 905,324 L1067,160 Q1020,100 929,46 Q837,-8 717,-23 L717,-193 L588,-193 L588,-18 Q493,-6 411,38 Q331,81 270,148 Q214,210 177,301 Q143,385 143,485 M393,485 Q393,389 444,314 Q495,239 588,215 L588,756 Q495,728 444,654 Q393,579 393,485"/> 
            <glyph glyph-name="£" unicode="&#xA3;" horiz-adv-x="1157" d=" M92,90 Q126,159 190,224 Q253,288 332,311 Q347,327 366,375 Q383,418 383,463 Q383,496 373,522 Q361,552 346,580 L92,580 L92,752 L252,752 Q221,809 185,885 Q152,955 152,1044 Q152,1115 179,1187 Q206,1259 264,1320 Q320,1379 409,1419 Q496,1458 616,1458 Q702,1458 768,1439 Q836,1419 889,1386 Q943,1352 982,1313 Q1022,1272 1051,1229 L872,1085 Q838,1143 778,1185 Q716,1229 625,1229 Q572,1229 529,1212 Q490,1197 458,1168 Q428,1141 413,1106 Q397,1069 397,1032 Q397,988 424,926 Q453,860 522,752 L901,752 L901,580 L608,580 Q620,545 624,522 Q629,492 629,465 Q629,407 615,365 Q598,313 592,301 Q625,290 657,272 L714,241 Q744,224 768,215 Q794,205 825,205 Q885,205 920,243 Q955,281 967,332 L1157,225 Q1141,180 1108,131 Q1078,87 1035,51 Q994,17 939,-4 Q885,-25 815,-25 Q746,-25 700,-7 Q652,12 614,32 Q546,69 539,72 Q502,90 457,90 Q389,90 346,50 Q304,11 281,-41"/> 
            <glyph glyph-name="¤" unicode="&#xA4;" horiz-adv-x="1141" d=" M49,258 L195,403 Q119,515 119,662 Q119,804 195,920 L49,1065 L193,1208 L336,1063 Q389,1098 459,1120 Q525,1141 596,1141 Q668,1141 732,1120 Q801,1098 852,1063 L997,1208 L1141,1065 L995,920 Q1032,865 1053,799 Q1073,736 1073,662 Q1073,587 1053,524 Q1032,457 995,401 L1141,258 L997,115 L852,260 Q736,184 596,184 Q450,184 338,260 L193,115 M348,659 Q348,609 368,563 Q388,517 421,484 Q454,451 500,431 Q544,412 596,412 Q648,412 692,431 Q737,451 771,483 Q803,514 824,560 Q844,605 844,655 Q844,705 824,753 Q804,801 771,834 Q737,868 691,889 Q647,909 594,909 Q540,909 499,889 Q453,867 421,835 Q388,802 368,756 Q348,710 348,659"/> 
            <glyph glyph-name="¥" unicode="&#xA5;" horiz-adv-x="1206" d=" M-18,1434 L252,1434 L602,793 L952,1434 L1206,1434 L940,961 L1137,961 L1137,788 L842,788 L762,645 L1137,645 L1137,473 L717,473 L717,0 L471,0 L471,473 L51,473 L51,645 L426,645 L344,788 L51,788 L51,961 L248,961"/> 
            <glyph glyph-name="¦" unicode="&#xA6;" horiz-adv-x="385" d=" M147,328 L385,328 L385,-471 L147,-471 M147,717 L147,1516 L385,1516 L385,717"/> 
            <glyph glyph-name="§" unicode="&#xA7;" horiz-adv-x="918" d=" M102,518 Q102,579 124,634 Q144,684 177,725 Q208,764 247,790 Q275,809 315,829 Q228,890 187,957 Q145,1026 145,1114 Q145,1183 173,1248 Q199,1309 251,1358 Q300,1404 371,1432 Q437,1458 524,1458 Q650,1458 739,1405 Q827,1353 879,1290 L717,1139 Q683,1183 632,1208 Q580,1233 530,1233 Q466,1233 429,1197 Q391,1161 391,1110 Q391,1081 403,1060 Q416,1037 442,1017 Q473,993 510,971 L606,913 Q682,869 720,845 Q777,809 820,766 Q865,721 891,669 Q918,615 918,543 Q918,479 895,425 Q873,374 841,334 Q809,294 772,269 Q736,244 705,229 Q792,168 833,92 Q874,16 874,-70 Q874,-143 846,-202 Q819,-260 767,-305 Q718,-348 647,-373 Q578,-397 498,-397 Q370,-397 282,-345 Q189,-290 139,-231 L295,-70 Q332,-117 386,-145 Q438,-172 489,-172 Q554,-172 591,-136 Q629,-100 629,-49 Q629,-24 617,-3 Q603,22 581,41 Q556,63 514,88 L414,147 Q357,178 299,216 Q242,253 200,295 Q155,340 129,392 Q102,446 102,518 M348,541 Q348,505 357,481 Q366,457 387,436 Q407,416 438,396 L510,352 L520,346 Q549,351 574,362 Q603,375 624,396 Q644,416 658,447 Q672,478 672,518 Q672,531 669,552 Q666,573 649,599 Q632,625 600,653 Q566,683 510,709 L500,713 Q440,702 395,664 Q348,625 348,541"/> 
            <glyph glyph-name="¨" unicode="&#xA8;" horiz-adv-x="774" d=" M29,1272 Q29,1339 76,1386 Q124,1434 190,1434 Q257,1434 305,1386 Q352,1339 352,1272 Q352,1204 305,1157 Q258,1110 190,1110 Q123,1110 76,1157 Q29,1204 29,1272 M451,1272 Q451,1339 498,1386 Q546,1434 612,1434 Q679,1434 727,1386 Q774,1339 774,1272 Q774,1204 727,1157 Q680,1110 612,1110 Q545,1110 498,1157 Q451,1204 451,1272"/> 
            <glyph glyph-name="©" unicode="&#xA9;" horiz-adv-x="1579" d=" M98,564 Q98,870 157,1006 Q216,1142 315,1241 Q415,1341 551,1400 Q685,1458 840,1458 Q994,1458 1128,1400 Q1265,1341 1363,1241 Q1463,1139 1521,1006 Q1579,872 1579,717 Q1579,562 1521,428 Q1463,295 1363,193 Q1265,93 1128,34 Q992,-25 840,-25 Q687,-25 551,34 Q415,93 315,193 Q216,292 98,564 M274,834 Q274,600 319,498 Q365,394 441,318 Q515,244 621,197 Q723,152 840,152 Q957,152 1059,197 Q1163,243 1238,318 Q1315,395 1359,498 Q1403,601 1403,717 Q1403,833 1359,936 Q1316,1037 1238,1115 Q1161,1192 1059,1237 Q957,1282 840,1282 Q723,1282 621,1237 Q517,1191 441,1115 Q364,1038 274,834 M442,717 Q442,801 475,874 Q509,949 563,1002 Q622,1059 694,1089 Q769,1120 856,1120 Q916,1120 962,1107 Q1007,1094 1050,1072 Q1086,1054 1120,1026 Q1147,1004 1171,977 L1036,856 Q1007,890 962,913 Q914,938 856,938 Q808,938 767,920 Q729,903 699,870 Q670,838 656,801 Q641,762 641,717 Q641,670 656,630 Q670,592 699,560 Q726,530 767,512 Q808,494 858,494 Q927,494 975,523 Q1024,553 1047,588 L1174,459 Q1158,438 1124,409 Q1090,380 1053,361 Q1015,341 964,327 Q914,313 856,313 Q773,313 694,344 Q621,373 563,429 Q509,482 475,557 Q442,631 442,717"/> 
            <glyph glyph-name="ª" unicode="&#xAA;" horiz-adv-x="598" d=" M37,1020 Q37,1112 103,1167 Q170,1223 272,1223 Q326,1223 372,1207 Q414,1192 444,1169 L444,1208 Q444,1261 400,1285 Q356,1309 307,1309 Q270,1309 223,1297 Q168,1283 133,1266 L82,1401 Q120,1423 183,1440 Q248,1458 324,1458 Q460,1458 528,1394 Q598,1329 598,1231 L598,831 L455,831 L455,911 Q422,866 367,841 Q314,817 258,817 Q216,817 177,830 Q135,844 106,870 Q75,898 56,934 Q37,971 37,1020 M197,1026 Q197,983 230,967 Q266,950 299,950 Q347,950 385,973 Q421,994 444,1024 L444,1069 Q407,1087 373,1094 Q331,1102 305,1102 Q270,1102 232,1086 Q197,1071 197,1026"/> 
            <glyph glyph-name="«" unicode="&#xAB;" horiz-adv-x="995" d=" M12,502 L387,985 L555,856 L272,502 L555,147 L387,18 M453,502 L827,985 L995,856 L713,502 L995,147 L827,18"/> 
            <glyph glyph-name="¬" unicode="&#xAC;" horiz-adv-x="1266" d=" M37,807 L37,1040 L1266,1040 L1266,393 L1024,393 L1024,807"/> 
            <glyph glyph-name="­" unicode="&#xAD;" horiz-adv-x="614" d=" M68,389 L68,623 L614,623 L614,389"/> 
            <glyph glyph-name="®" unicode="&#xAE;" horiz-adv-x="866" d=" M10,1044 Q10,1133 44,1211 Q79,1291 135,1349 Q190,1406 270,1441 Q347,1475 436,1475 Q525,1475 603,1441 Q683,1406 740,1349 Q798,1290 833,1211 Q866,1135 866,1044 Q866,954 833,879 Q798,799 740,743 Q682,686 603,652 Q525,618 436,618 Q347,618 270,652 Q191,687 135,743 Q80,798 44,879 Q10,956 10,1044 M143,1044 Q143,984 166,930 Q189,876 228,837 Q268,797 322,774 Q373,752 436,752 Q500,752 551,774 Q604,796 644,837 Q684,877 708,930 Q731,980 731,1044 Q731,1109 708,1159 Q684,1212 644,1252 Q604,1292 551,1316 Q501,1339 436,1339 Q372,1339 322,1316 Q267,1291 228,1252 Q189,1213 166,1159 Q143,1105 143,1044 M281,854 L281,1243 L481,1243 Q541,1243 575,1206 Q610,1168 610,1116 Q610,1071 587,1041 Q563,1009 522,997 L625,854 L502,854 L420,979 L391,979 L391,854 M391,1073 L432,1073 Q461,1073 482,1079 Q504,1085 504,1116 Q504,1147 482,1153 Q461,1159 432,1159 L391,1159"/> 
            <glyph glyph-name="¯" unicode="&#xAF;" horiz-adv-x="672" d=" M12,1171 L12,1393 L672,1393 L672,1171"/> 
            <glyph glyph-name="°" unicode="&#xB0;" horiz-adv-x="686" d=" M45,1072 Q45,1202 70,1263 Q94,1321 137,1364 Q180,1408 239,1433 Q296,1458 365,1458 Q433,1458 490,1433 Q548,1408 592,1364 Q634,1322 660,1263 Q686,1203 686,1137 Q686,1071 660,1011 Q634,951 592,909 Q549,866 490,842 Q429,817 365,817 Q300,817 239,842 Q180,866 137,909 Q94,952 70,1011 M221,1137 Q221,1075 264,1033 Q307,991 367,991 Q426,991 469,1033 Q512,1075 512,1137 Q512,1198 469,1240 Q426,1282 367,1282 Q308,1282 264,1240 Q221,1198 221,1137"/> 
            <glyph glyph-name="±" unicode="&#xB1;" horiz-adv-x="987" d=" M78,0 L78,209 L987,209 L987,0 M78,551 L78,760 L420,760 L420,1026 L645,1026 L645,760 L987,760 L987,551 L645,551 L645,299 L420,299 L420,551"/> 
            <glyph glyph-name="²" unicode="&#xB2;" horiz-adv-x="668" d=" M45,1411 Q60,1457 84,1500 Q108,1544 146,1577 Q180,1607 234,1630 Q283,1651 352,1651 Q427,1651 485,1625 Q545,1598 582,1560 Q620,1521 640,1468 Q659,1418 659,1368 Q659,1302 635,1251 Q613,1204 594,1180 L440,975 L668,975 L668,807 L66,807 L377,1184 Q390,1203 403,1218 Q422,1240 435,1260 Q450,1282 462,1308 Q473,1331 473,1362 Q473,1411 437,1444 Q401,1477 346,1477 Q287,1477 254,1440 Q223,1404 207,1356"/> 
            <glyph glyph-name="³" unicode="&#xB3;" horiz-adv-x="680" d=" M61,991 L213,1075 Q230,1027 266,994 Q302,961 369,961 Q422,961 459,986 Q496,1011 496,1059 Q496,1104 460,1129 Q423,1155 358,1155 L313,1155 L313,1298 L344,1298 Q394,1298 437,1319 Q481,1340 481,1393 Q481,1434 450,1459 Q418,1485 362,1485 Q305,1485 269,1457 Q236,1431 219,1397 L76,1475 Q111,1545 181,1597 Q254,1651 367,1651 Q426,1651 480,1633 Q536,1614 575,1584 Q617,1551 641,1505 Q666,1457 666,1399 Q666,1328 635,1292 Q606,1259 569,1241 Q614,1223 647,1176 Q680,1129 680,1055 Q680,989 653,941 Q626,892 583,860 Q541,828 482,811 Q427,795 367,795 Q300,795 253,812 Q201,831 165,857 Q128,884 101,920 Q76,954 61,991"/> 
            <glyph glyph-name="´" unicode="&#xB4;" horiz-adv-x="557" d=" M41,1186 L391,1542 L557,1380 L199,1036"/> 
            <glyph glyph-name="µ" unicode="&#xB5;" horiz-adv-x="999" d=" M123,-471 L123,971 L369,971 L369,410 Q369,301 418,253 Q468,205 551,205 Q629,205 676,241 Q725,279 754,324 L754,971 L999,971 L999,0 L770,0 L770,141 Q753,111 727,84 Q696,52 664,31 Q622,4 581,-9 Q531,-25 479,-25 Q426,-25 369,-8 L369,-471"/> 
            <glyph glyph-name="¶" unicode="&#xB6;" horiz-adv-x="1225" d=" M74,946 Q74,1048 113,1136 Q152,1225 217,1290 Q283,1356 372,1395 Q460,1434 561,1434 L1225,1434 L1225,-385 L995,-385 L995,1225 L791,1225 L791,-385 L561,-385 L561,463 Q462,463 372,501 Q282,539 217,604 Q152,669 113,758 Q74,846 74,946"/> 
            <glyph glyph-name="·" unicode="&#xB7;" horiz-adv-x="446" d=" M123,737 Q123,805 170,852 Q217,899 285,899 Q352,899 399,852 Q446,805 446,737 Q446,670 399,623 Q351,575 285,575 Q218,575 170,623 Q123,670 123,737"/> 
            <glyph glyph-name="¸" unicode="&#xB8;" horiz-adv-x="494" d=" M127,-489 L274,-92 L494,-117 L354,-555"/> 
            <glyph glyph-name="¹" unicode="&#xB9;" horiz-adv-x="514" d=" M16,1370 L340,1638 L514,1638 L514,807 L324,807 L324,1399 L125,1235"/> 
            <glyph glyph-name="º" unicode="&#xBA;" horiz-adv-x="688" d=" M45,1071 Q45,1203 71,1263 Q96,1322 139,1364 Q182,1408 241,1433 Q298,1458 367,1458 Q436,1458 493,1433 Q550,1408 594,1364 Q638,1320 663,1263 Q688,1206 688,1137 Q688,1068 663,1011 Q638,952 594,909 Q552,867 493,841 Q433,815 367,815 Q301,815 241,841 Q181,867 139,909 Q97,951 45,1071 M221,1137 Q221,1077 264,1034 Q307,991 367,991 Q426,991 469,1034 Q512,1077 512,1137 Q512,1196 469,1239 Q426,1282 367,1282 Q307,1282 264,1239 Q221,1196 221,1137"/> 
            <glyph glyph-name="»" unicode="&#xBB;" horiz-adv-x="1071" d=" M88,147 L371,502 L88,856 L256,985 L631,502 L256,18 M528,147 L811,502 L528,856 L696,985 L1071,502 L696,18"/> 
            <glyph glyph-name="¼" unicode="&#xBC;" horiz-adv-x="1649" d=" M53,1165 L377,1434 L551,1434 L551,602 L360,602 L360,1194 L162,1030 M369,14 L1333,1497 L1450,1417 L485,-66 M920,160 L1346,831 L1546,831 L1546,319 L1649,319 L1649,160 L1546,160 L1546,0 L1370,0 L1370,160 M1198,319 L1370,319 L1370,594"/> 
            <glyph glyph-name="½" unicode="&#xBD;" horiz-adv-x="1583" d=" M33,1165 L356,1434 L530,1434 L530,602 L340,602 L340,1194 L141,1030 M268,14 L1233,1497 L1350,1417 L385,-66 M961,604 Q978,655 999,693 Q1022,735 1062,770 Q1096,800 1150,823 Q1200,844 1268,844 Q1343,844 1401,818 Q1460,792 1497,753 Q1535,713 1555,662 Q1575,610 1575,561 Q1575,497 1550,444 Q1528,397 1509,373 L1356,168 L1583,168 L1583,0 L981,0 L1292,377 Q1300,389 1319,411 Q1338,433 1351,453 Q1363,470 1377,501 Q1389,526 1389,555 Q1389,604 1353,637 Q1317,670 1262,670 Q1202,670 1169,633 Q1138,597 1122,549"/> 
            <glyph glyph-name="¾" unicode="&#xBE;" horiz-adv-x="1649" d=" M82,786 L233,870 Q249,825 287,790 Q324,756 389,756 Q442,756 479,781 Q516,806 516,854 Q516,900 480,925 Q445,950 379,950 L334,950 L334,1094 L365,1094 Q417,1094 458,1114 Q502,1135 502,1188 Q502,1228 470,1254 Q438,1280 383,1280 Q326,1280 290,1252 Q257,1226 240,1192 L96,1270 Q131,1340 202,1393 Q273,1446 387,1446 Q447,1446 501,1428 Q557,1409 596,1379 Q636,1348 661,1300 Q686,1252 686,1194 Q686,1123 655,1087 Q625,1053 590,1036 Q635,1018 668,971 Q700,926 700,850 Q700,782 674,736 Q647,689 603,655 Q560,623 503,606 Q448,590 387,590 Q320,590 273,607 Q221,626 185,652 Q150,677 122,715 Q97,749 82,786 M389,14 L1354,1497 L1470,1417 L506,-66 M920,160 L1346,831 L1546,831 L1546,319 L1649,319 L1649,160 L1546,160 L1546,0 L1370,0 L1370,160 M1198,319 L1370,319 L1370,594"/> 
            <glyph glyph-name="¿" unicode="&#xBF;" horiz-adv-x="969" d=" M82,-70 Q82,-1 99,46 Q117,96 147,139 Q171,174 219,222 Q251,254 309,305 L351,344 Q368,361 374,372 Q382,386 383,402 Q385,426 385,446 L385,551 L629,551 L629,399 Q629,352 618,316 Q608,282 587,254 Q569,229 529,196 L444,123 Q395,81 362,40 Q328,-1 328,-68 Q328,-154 385,-204 Q443,-254 520,-254 Q564,-254 600,-238 Q640,-221 668,-195 Q698,-168 722,-132 Q744,-100 760,-57 L969,-154 Q948,-214 909,-275 Q867,-340 814,-383 Q755,-431 685,-459 Q614,-487 520,-487 Q427,-487 347,-456 Q267,-425 208,-369 Q151,-315 116,-237 Q82,-162 82,-70 M344,834 Q344,901 391,948 Q438,995 506,995 Q574,995 621,948 Q668,901 668,834 Q668,766 621,719 Q574,672 506,672 Q438,672 391,719 Q344,766 344,834"/> 
            <glyph glyph-name="À" unicode="&#xC0;" horiz-adv-x="1376" d=" M12,0 L569,1434 L819,1434 L1376,0 L1128,0 L997,340 L391,340 L260,0 M391,1870 L557,2032 L907,1675 L750,1526 M479,565 L909,565 L694,1124"/> 
            <glyph glyph-name="Á" unicode="&#xC1;" horiz-adv-x="1376" d=" M12,0 L569,1434 L819,1434 L1376,0 L1128,0 L997,340 L391,340 L260,0 M479,565 L909,565 L694,1124 M487,1673 L838,2030 L1004,1868 L645,1524"/> 
            <glyph glyph-name="Â" unicode="&#xC2;" horiz-adv-x="1376" d=" M12,0 L569,1434 L819,1434 L1376,0 L1128,0 L997,340 L391,340 L260,0 M313,1688 L694,1962 L1075,1688 L940,1520 L694,1706 L444,1520 M479,565 L909,565 L694,1124"/> 
            <glyph glyph-name="Ã" unicode="&#xC3;" horiz-adv-x="1376" d=" M12,0 L569,1434 L819,1434 L1376,0 L1128,0 L997,340 L391,340 L260,0 M279,1712 Q320,1820 394,1872 Q470,1925 547,1925 Q596,1925 636,1907 Q671,1891 710,1866 L773,1825 Q805,1806 834,1806 Q880,1806 907,1849 Q933,1891 944,1939 L1112,1806 Q1071,1692 997,1640 Q924,1589 850,1589 Q803,1589 762,1608 Q732,1622 689,1648 L625,1688 Q595,1706 563,1706 Q518,1706 489,1668 Q462,1632 451,1587 M479,565 L909,565 L694,1124"/> 
            <glyph glyph-name="Ä" unicode="&#xC4;" horiz-adv-x="1376" d=" M12,0 L569,1434 L819,1434 L1376,0 L1128,0 L997,340 L391,340 L260,0 M322,1759 Q322,1827 369,1874 Q416,1921 483,1921 Q551,1921 598,1874 Q645,1827 645,1759 Q645,1692 598,1645 Q550,1597 483,1597 Q417,1597 369,1645 Q322,1692 322,1759 M479,565 L909,565 L694,1124 M743,1759 Q743,1826 791,1874 Q838,1921 905,1921 Q973,1921 1020,1874 Q1067,1827 1067,1759 Q1067,1692 1020,1645 Q972,1597 905,1597 Q839,1597 791,1645 Q743,1693 743,1759"/> 
            <glyph glyph-name="Å" unicode="&#xC5;" horiz-adv-x="1376" d=" M12,0 L569,1434 L819,1434 L1376,0 L1128,0 L997,340 L391,340 L260,0 M444,1767 Q444,1820 465,1863 Q486,1907 519,1940 Q554,1975 598,1994 Q642,2013 694,2013 Q747,2013 791,1994 Q833,1976 869,1940 Q903,1906 924,1863 Q944,1822 944,1767 Q944,1713 924,1672 Q903,1628 869,1594 Q835,1560 791,1541 Q747,1522 694,1522 Q642,1522 598,1541 Q552,1561 519,1594 Q487,1626 465,1672 Q444,1715 444,1767 M479,565 L909,565 L694,1124 M584,1767 Q584,1720 615,1689 Q647,1657 694,1657 Q741,1657 773,1689 Q805,1721 805,1767 Q805,1814 773,1846 Q741,1878 694,1878 Q647,1878 615,1846 Q584,1815 584,1767"/> 
            <glyph glyph-name="Æ" unicode="&#xC6;" horiz-adv-x="1788" d=" M12,0 L858,1434 L1776,1434 L1776,1204 L1255,1204 L1255,852 L1726,852 L1726,618 L1255,618 L1255,229 L1788,229 L1788,0 L1010,0 L1010,293 L453,293 L279,0 M588,526 L1010,526 L1010,1239"/> 
            <glyph glyph-name="Ç" unicode="&#xC7;" horiz-adv-x="1348" d=" M70,556 Q70,878 125,1012 Q181,1149 277,1246 Q374,1345 508,1402 Q639,1458 795,1458 Q894,1458 973,1438 Q1053,1418 1122,1384 Q1196,1348 1241,1312 Q1295,1269 1327,1233 L1161,1071 Q1107,1131 1017,1179 Q923,1229 797,1229 Q692,1229 602,1188 Q518,1149 452,1076 Q389,1005 354,913 Q319,820 319,717 Q319,613 354,520 Q388,430 453,357 Q516,286 604,246 Q694,205 799,205 Q928,205 1027,259 Q1127,314 1184,381 L1348,219 Q1310,174 1253,129 Q1198,86 1128,51 Q1061,18 975,-4 Q891,-25 797,-25 Q642,-25 508,32 Q373,90 277,187 Q182,284 125,422 M471,-498 L618,-100 L838,-125 L698,-563"/> 
            <glyph glyph-name="È" unicode="&#xC8;" horiz-adv-x="1032" d=" M152,0 L152,1434 L1020,1434 L1020,1200 L397,1200 L397,852 L971,852 L971,618 L397,618 L397,233 L1032,233 L1032,0 M301,1870 L467,2032 L817,1675 L659,1526"/> 
            <glyph glyph-name="É" unicode="&#xC9;" horiz-adv-x="1032" d=" M152,0 L152,1434 L1020,1434 L1020,1200 L397,1200 L397,852 L971,852 L971,618 L397,618 L397,233 L1032,233 L1032,0 M389,1673 L739,2030 L905,1868 L547,1524"/> 
            <glyph glyph-name="Ê" unicode="&#xCA;" horiz-adv-x="1032" d=" M152,0 L152,1434 L1020,1434 L1020,1200 L397,1200 L397,852 L971,852 L971,618 L397,618 L397,233 L1032,233 L1032,0 M203,1688 L584,1962 L965,1688 L829,1520 L584,1706 L334,1520"/> 
            <glyph glyph-name="Ë" unicode="&#xCB;" horiz-adv-x="1032" d=" M152,0 L152,1434 L1020,1434 L1020,1200 L397,1200 L397,852 L971,852 L971,618 L397,618 L397,233 L1032,233 L1032,0 M223,1759 Q223,1827 270,1874 Q317,1921 385,1921 Q453,1921 500,1874 Q547,1827 547,1759 Q547,1692 500,1645 Q452,1597 385,1597 Q318,1597 270,1645 Q223,1692 223,1759 M645,1759 Q645,1827 692,1874 Q739,1921 807,1921 Q875,1921 922,1874 Q969,1827 969,1759 Q969,1692 922,1645 Q874,1597 807,1597 Q740,1597 692,1645 Q645,1692 645,1759"/> 
            <glyph glyph-name="Ì" unicode="&#xCC;" horiz-adv-x="524" d=" M8,1870 L174,2032 L524,1675 L367,1526 M180,0 L180,1434 L426,1434 L426,0"/> 
            <glyph glyph-name="Í" unicode="&#xCD;" horiz-adv-x="598" d=" M82,1673 L432,2030 L598,1868 L240,1524 M176,0 L176,1434 L422,1434 L422,0"/> 
            <glyph glyph-name="Î" unicode="&#xCE;" horiz-adv-x="690" d=" M-72,1708 L309,1982 L690,1708 L555,1540 L309,1726 L59,1540 M180,0 L180,1434 L426,1434 L426,0"/> 
            <glyph glyph-name="Ï" unicode="&#xCF;" horiz-adv-x="649" d=" M-96,1759 Q-96,1827 -49,1874 Q-2,1921 66,1921 Q133,1921 180,1874 Q227,1827 227,1759 Q227,1692 180,1645 Q132,1597 66,1597 Q-1,1597 -49,1645 Q-96,1692 -96,1759 M154,0 L154,1434 L399,1434 L399,0 M326,1759 Q326,1827 373,1874 Q420,1921 487,1921 Q555,1921 602,1874 Q649,1827 649,1759 Q649,1692 602,1645 Q554,1597 487,1597 Q421,1597 373,1645 Q326,1692 326,1759"/> 
            <glyph glyph-name="Ð" unicode="&#xD0;" horiz-adv-x="1380" d=" M25,625 L25,838 L209,838 L209,1434 L672,1434 Q825,1434 958,1379 Q1090,1324 1183,1230 Q1274,1137 1328,1004 Q1380,875 1380,717 Q1380,559 1328,430 Q1274,297 1183,204 Q1089,108 958,54 Q828,0 672,0 L209,0 L209,625 M455,233 L676,233 Q780,233 864,272 Q946,310 1008,378 Q1067,443 1099,531 Q1130,617 1130,717 Q1130,816 1099,903 Q1067,992 1008,1057 Q950,1121 864,1161 Q780,1200 676,1200 L455,1200 L455,838 L868,838 L868,625 L455,625"/> 
            <glyph glyph-name="Ñ" unicode="&#xD1;" horiz-adv-x="1335" d=" M152,0 L152,1434 L373,1434 L1090,446 L1090,1434 L1335,1434 L1335,0 L1114,0 L397,985 L397,0 M334,1712 Q375,1819 450,1872 Q526,1925 602,1925 Q650,1925 691,1907 Q726,1891 765,1866 L828,1825 Q860,1806 889,1806 Q936,1806 963,1849 Q988,1889 999,1939 L1167,1806 Q1126,1691 1053,1640 Q980,1589 905,1589 Q858,1589 817,1608 Q787,1622 744,1648 L680,1688 Q650,1706 618,1706 Q574,1706 545,1668 Q516,1630 506,1587"/> 
            <glyph glyph-name="Ò" unicode="&#xD2;" horiz-adv-x="1520" d=" M70,557 Q70,877 124,1012 Q178,1148 275,1246 Q372,1345 505,1402 Q635,1458 795,1458 Q952,1458 1083,1402 Q1216,1345 1314,1246 Q1411,1148 1465,1012 Q1520,875 1520,717 Q1520,560 1465,422 Q1410,284 1314,187 Q1218,90 1083,32 Q950,-25 795,-25 Q637,-25 505,32 Q370,90 275,187 Q179,284 124,422 M319,717 Q319,610 353,520 Q388,428 449,359 Q510,290 598,250 Q688,209 795,209 Q901,209 991,250 Q1080,291 1141,359 Q1200,426 1236,520 Q1270,610 1270,717 Q1270,823 1236,913 Q1200,1007 1141,1074 Q1079,1144 991,1184 Q901,1225 795,1225 Q688,1225 598,1184 Q512,1145 449,1074 Q388,1005 353,913 Q319,823 319,717 M510,1870 L676,2032 L1026,1675 L868,1526"/> 
            <glyph glyph-name="Ó" unicode="&#xD3;" horiz-adv-x="1520" d=" M70,557 Q70,877 124,1012 Q178,1148 275,1246 Q372,1345 505,1402 Q635,1458 795,1458 Q952,1458 1083,1402 Q1216,1345 1314,1246 Q1411,1148 1465,1012 Q1520,875 1520,717 Q1520,560 1465,422 Q1410,284 1314,187 Q1218,90 1083,32 Q950,-25 795,-25 Q637,-25 505,32 Q370,90 275,187 Q179,284 124,422 M319,717 Q319,610 353,520 Q388,428 449,359 Q510,290 598,250 Q688,209 795,209 Q901,209 991,250 Q1080,291 1141,359 Q1200,426 1236,520 Q1270,610 1270,717 Q1270,823 1236,913 Q1200,1007 1141,1074 Q1079,1144 991,1184 Q901,1225 795,1225 Q688,1225 598,1184 Q512,1145 449,1074 Q388,1005 353,913 Q319,823 319,717 M553,1673 L903,2030 L1069,1868 L711,1524"/> 
            <glyph glyph-name="Ô" unicode="&#xD4;" horiz-adv-x="1520" d=" M70,557 Q70,877 124,1012 Q178,1148 275,1246 Q372,1345 505,1402 Q635,1458 795,1458 Q952,1458 1083,1402 Q1216,1345 1314,1246 Q1411,1148 1465,1012 Q1520,875 1520,717 Q1520,560 1465,422 Q1410,284 1314,187 Q1218,90 1083,32 Q950,-25 795,-25 Q637,-25 505,32 Q370,90 275,187 Q179,284 124,422 M319,717 Q319,610 353,520 Q388,428 449,359 Q510,290 598,250 Q688,209 795,209 Q901,209 991,250 Q1080,291 1141,359 Q1200,426 1236,520 Q1270,610 1270,717 Q1270,823 1236,913 Q1200,1007 1141,1074 Q1079,1144 991,1184 Q901,1225 795,1225 Q688,1225 598,1184 Q512,1145 449,1074 Q388,1005 353,913 Q319,823 319,717 M418,1688 L799,1962 L1180,1688 L1044,1520 L799,1706 L549,1520"/> 
            <glyph glyph-name="Õ" unicode="&#xD5;" horiz-adv-x="1520" d=" M70,557 Q70,877 124,1012 Q178,1148 275,1246 Q372,1345 505,1402 Q635,1458 795,1458 Q952,1458 1083,1402 Q1216,1345 1314,1246 Q1411,1148 1465,1012 Q1520,875 1520,717 Q1520,560 1465,422 Q1410,284 1314,187 Q1218,90 1083,32 Q950,-25 795,-25 Q637,-25 505,32 Q370,90 275,187 Q179,284 124,422 M319,717 Q319,610 353,520 Q388,428 449,359 Q510,290 598,250 Q688,209 795,209 Q901,209 991,250 Q1080,291 1141,359 Q1200,426 1236,520 Q1270,610 1270,717 Q1270,823 1236,913 Q1200,1007 1141,1074 Q1079,1144 991,1184 Q901,1225 795,1225 Q688,1225 598,1184 Q512,1145 449,1074 Q388,1005 353,913 Q319,823 319,717 M381,1712 Q422,1819 497,1872 Q573,1925 649,1925 Q698,1925 738,1907 Q773,1891 812,1866 L876,1825 Q908,1806 936,1806 Q983,1806 1010,1849 Q1036,1891 1047,1939 L1214,1806 Q1173,1691 1100,1640 Q1026,1589 952,1589 Q905,1589 864,1608 Q838,1620 792,1648 L727,1688 Q697,1706 666,1706 Q621,1706 592,1668 Q564,1630 553,1587"/> 
            <glyph glyph-name="Ö" unicode="&#xD6;" horiz-adv-x="1520" d=" M70,557 Q70,877 124,1012 Q178,1148 275,1246 Q372,1345 505,1402 Q635,1458 795,1458 Q952,1458 1083,1402 Q1216,1345 1314,1246 Q1411,1148 1465,1012 Q1520,875 1520,717 Q1520,560 1465,422 Q1410,284 1314,187 Q1218,90 1083,32 Q950,-25 795,-25 Q637,-25 505,32 Q370,90 275,187 Q179,284 124,422 M319,717 Q319,610 353,520 Q388,428 449,359 Q510,290 598,250 Q688,209 795,209 Q901,209 991,250 Q1080,291 1141,359 Q1200,426 1236,520 Q1270,610 1270,717 Q1270,823 1236,913 Q1200,1007 1141,1074 Q1079,1144 991,1184 Q901,1225 795,1225 Q688,1225 598,1184 Q512,1145 449,1074 Q388,1005 353,913 Q319,823 319,717 M422,1759 Q422,1827 469,1874 Q516,1921 584,1921 Q651,1921 698,1874 Q745,1827 745,1759 Q745,1692 698,1645 Q650,1597 584,1597 Q517,1597 469,1645 Q422,1692 422,1759 M844,1759 Q844,1827 891,1874 Q938,1921 1006,1921 Q1073,1921 1120,1874 Q1167,1827 1167,1759 Q1167,1692 1120,1645 Q1072,1597 1006,1597 Q939,1597 891,1645 Q844,1692 844,1759"/> 
            <glyph glyph-name="×" unicode="&#xD7;" horiz-adv-x="1006" d=" M59,209 L373,522 L59,836 L219,995 L532,682 L846,995 L1006,836 L692,522 L1006,209 L846,49 L532,362 L219,49"/> 
            <glyph glyph-name="Ø" unicode="&#xD8;" horiz-adv-x="1528" d=" M78,717 Q78,877 132,1012 Q186,1146 284,1246 Q382,1345 513,1402 Q643,1458 801,1458 Q922,1458 1032,1423 Q1140,1389 1229,1325 L1372,1493 L1473,1409 L1329,1239 Q1424,1138 1476,1006 Q1528,874 1528,717 Q1528,557 1474,422 Q1420,286 1322,187 Q1225,89 1092,32 Q959,-25 803,-25 Q682,-25 572,10 Q470,43 375,109 L233,-59 L133,25 L276,195 Q182,293 130,426 Q78,558 78,717 M328,717 Q328,622 355,536 Q381,454 436,383 L1075,1141 Q1019,1182 950,1203 Q878,1225 803,1225 Q696,1225 606,1184 Q520,1145 457,1074 Q396,1005 361,913 Q328,825 328,717 M530,293 Q589,250 654,230 Q723,209 803,209 Q909,209 999,250 Q1088,291 1149,359 Q1208,426 1244,520 Q1278,610 1278,717 Q1278,807 1250,896 Q1224,978 1169,1049"/> 
            <glyph glyph-name="Ù" unicode="&#xD9;" horiz-adv-x="1260" d=" M154,520 L154,1434 L399,1434 L399,551 Q399,398 476,303 Q552,209 707,209 Q861,209 937,303 Q1014,398 1014,551 L1014,1434 L1260,1434 L1260,520 Q1260,401 1221,302 Q1181,201 1110,130 Q1036,56 936,16 Q833,-25 707,-25 Q580,-25 477,16 Q377,56 303,130 Q233,200 193,302 Q154,401 154,520 M387,1870 L553,2032 L903,1675 L745,1526"/> 
            <glyph glyph-name="Ú" unicode="&#xDA;" horiz-adv-x="1257" d=" M152,520 L152,1434 L397,1434 L397,551 Q397,398 474,303 Q550,209 705,209 Q859,209 935,303 Q1012,398 1012,551 L1012,1434 L1257,1434 L1257,520 Q1257,398 1219,302 Q1179,201 1108,130 Q1034,56 934,16 Q831,-25 705,-25 Q578,-25 475,16 Q375,56 301,130 Q230,201 190,302 Q152,398 152,520 M516,1673 L866,2030 L1032,1868 L674,1524"/> 
            <glyph glyph-name="Û" unicode="&#xDB;" horiz-adv-x="1257" d=" M152,520 L152,1434 L397,1434 L397,551 Q397,398 474,303 Q550,209 705,209 Q859,209 935,303 Q1012,398 1012,551 L1012,1434 L1257,1434 L1257,520 Q1257,398 1219,302 Q1179,201 1108,130 Q1034,56 934,16 Q831,-25 705,-25 Q578,-25 475,16 Q375,56 301,130 Q230,201 190,302 Q152,398 152,520 M324,1688 L705,1962 L1085,1688 L950,1520 L705,1706 L455,1520"/> 
            <glyph glyph-name="Ü" unicode="&#xDC;" horiz-adv-x="1257" d=" M152,520 L152,1434 L397,1434 L397,551 Q397,398 474,303 Q550,209 705,209 Q859,209 935,303 Q1012,398 1012,551 L1012,1434 L1257,1434 L1257,520 Q1257,398 1219,302 Q1179,201 1108,130 Q1034,56 934,16 Q831,-25 705,-25 Q578,-25 475,16 Q375,56 301,130 Q230,201 190,302 Q152,398 152,520 M332,1759 Q332,1827 379,1874 Q426,1921 494,1921 Q561,1921 608,1874 Q655,1827 655,1759 Q655,1692 608,1645 Q560,1597 494,1597 Q427,1597 379,1645 Q332,1692 332,1759 M754,1759 Q754,1827 801,1874 Q848,1921 915,1921 Q983,1921 1030,1874 Q1077,1827 1077,1759 Q1077,1692 1030,1645 Q982,1597 915,1597 Q849,1597 801,1645 Q754,1692 754,1759"/> 
            <glyph glyph-name="Ý" unicode="&#xDD;" horiz-adv-x="1241" d=" M16,1434 L287,1434 L637,793 L987,1434 L1241,1434 L752,565 L752,0 L506,0 L506,565 M440,1673 L791,2030 L956,1868 L598,1524"/> 
            <glyph glyph-name="Þ" unicode="&#xDE;" horiz-adv-x="1079" d=" M152,0 L152,1434 L397,1434 L397,1206 L573,1206 Q682,1206 770,1180 Q862,1153 931,1099 Q998,1047 1039,963 Q1079,882 1079,768 Q1079,654 1039,573 Q998,489 931,437 Q862,383 770,356 Q682,330 573,330 L397,330 L397,0 M397,559 L543,559 Q604,559 656,568 Q708,577 749,601 Q788,624 811,665 Q834,706 834,768 Q834,830 811,871 Q788,912 749,935 Q708,959 656,968 Q604,977 543,977 L397,977"/> 
            <glyph glyph-name="ß" unicode="&#xDF;" horiz-adv-x="1157" d=" M131,0 L131,1112 Q131,1216 166,1303 Q200,1388 263,1448 Q324,1506 412,1540 Q498,1573 598,1573 Q691,1573 776,1544 Q859,1516 923,1461 Q985,1408 1021,1328 Q1057,1248 1057,1151 Q1057,1088 1042,1038 Q1026,984 1005,953 Q982,919 950,893 Q918,868 887,852 Q938,840 989,811 Q1035,784 1075,735 Q1113,688 1135,620 Q1157,553 1157,457 Q1157,329 1113,236 Q1069,143 992,86 Q916,29 809,2 Q702,-25 580,-25 L539,-25 L539,205 L569,205 Q663,205 726,224 Q788,243 830,280 Q872,317 889,362 Q907,408 907,465 Q907,520 890,564 Q871,612 833,645 Q793,679 724,700 Q655,721 555,721 L555,938 Q642,938 691,962 Q743,987 767,1017 Q793,1049 800,1081 Q807,1112 807,1135 Q807,1170 796,1203 Q783,1241 760,1270 Q736,1300 695,1320 Q656,1339 598,1339 Q499,1339 438,1278 Q377,1217 377,1112 L377,0"/> 
            <glyph glyph-name="à" unicode="&#xE0;" horiz-adv-x="975" d=" M78,221 Q78,369 108,429 Q139,490 189,532 Q240,575 312,599 Q382,623 465,623 Q532,623 604,605 Q678,586 729,553 L729,608 Q729,657 709,688 Q689,719 657,740 Q625,761 589,768 Q549,776 516,776 Q465,776 391,760 Q312,743 229,705 L150,907 Q227,943 325,969 Q423,995 539,995 Q742,995 858,897 Q975,798 975,633 L975,0 L748,0 L748,123 Q702,60 617,17 Q534,-25 432,-25 Q366,-25 298,-3 Q234,18 184,60 Q134,102 106,162 M272,1442 L438,1604 L788,1247 L631,1098 M328,305 Q328,265 344,242 Q361,217 386,204 Q414,189 442,185 Q475,180 500,180 Q586,180 641,216 Q695,251 729,293 L729,393 Q679,419 623,430 Q563,442 516,442 Q482,442 451,435 Q415,427 390,413 Q363,398 345,371 Q328,346 328,305"/> 
            <glyph glyph-name="á" unicode="&#xE1;" horiz-adv-x="975" d=" M78,221 Q78,369 108,429 Q139,490 189,532 Q240,575 312,599 Q382,623 465,623 Q532,623 604,605 Q678,586 729,553 L729,608 Q729,657 709,688 Q689,719 657,740 Q625,761 589,768 Q549,776 516,776 Q465,776 391,760 Q312,743 229,705 L150,907 Q227,943 325,969 Q423,995 539,995 Q742,995 858,897 Q975,798 975,633 L975,0 L748,0 L748,123 Q702,60 617,17 Q534,-25 432,-25 Q366,-25 298,-3 Q234,18 184,60 Q134,102 106,162 M328,305 Q328,265 344,242 Q361,217 386,204 Q414,189 442,185 Q475,180 500,180 Q586,180 641,216 Q695,251 729,293 L729,393 Q679,419 623,430 Q563,442 516,442 Q482,442 451,435 Q415,427 390,413 Q363,398 345,371 Q328,346 328,305 M354,1247 L705,1604 L870,1442 L512,1098"/> 
            <glyph glyph-name="â" unicode="&#xE2;" horiz-adv-x="975" d=" M78,221 Q78,369 108,429 Q139,490 189,532 Q240,575 312,599 Q382,623 465,623 Q532,623 604,605 Q678,586 729,553 L729,608 Q729,657 709,688 Q689,719 657,740 Q625,761 589,768 Q549,776 516,776 Q465,776 391,760 Q312,743 229,705 L150,907 Q227,943 325,969 Q423,995 539,995 Q742,995 858,897 Q975,798 975,633 L975,0 L748,0 L748,123 Q702,60 617,17 Q534,-25 432,-25 Q366,-25 298,-3 Q234,18 184,60 Q134,102 106,162 M203,1241 L584,1516 L965,1241 L829,1073 L584,1260 L334,1073 M328,305 Q328,265 344,242 Q361,217 386,204 Q414,189 442,185 Q475,180 500,180 Q586,180 641,216 Q695,251 729,293 L729,393 Q679,419 623,430 Q563,442 516,442 Q482,442 451,435 Q415,427 390,413 Q363,398 345,371 Q328,346 328,305"/> 
            <glyph glyph-name="ã" unicode="&#xE3;" horiz-adv-x="975" d=" M78,221 Q78,369 108,429 Q139,490 189,532 Q240,575 312,599 Q382,623 465,623 Q532,623 604,605 Q678,586 729,553 L729,608 Q729,657 709,688 Q689,719 657,740 Q625,761 589,768 Q549,776 516,776 Q465,776 391,760 Q312,743 229,705 L150,907 Q227,943 325,969 Q423,995 539,995 Q742,995 858,897 Q975,798 975,633 L975,0 L748,0 L748,123 Q702,60 617,17 Q534,-25 432,-25 Q366,-25 298,-3 Q234,18 184,60 Q134,102 106,162 M135,1260 Q175,1366 251,1419 Q328,1473 403,1473 Q450,1473 493,1454 Q525,1440 566,1413 L630,1372 Q660,1354 690,1354 Q737,1354 764,1397 Q790,1439 801,1487 L969,1354 Q928,1240 854,1188 Q780,1137 707,1137 Q657,1137 618,1155 Q592,1167 546,1195 L481,1235 Q451,1253 420,1253 Q375,1253 346,1215 Q317,1177 307,1135 M328,305 Q328,265 344,242 Q361,217 386,204 Q414,189 442,185 Q475,180 500,180 Q586,180 641,216 Q695,251 729,293 L729,393 Q679,419 623,430 Q563,442 516,442 Q482,442 451,435 Q415,427 390,413 Q363,398 345,371 Q328,346 328,305"/> 
            <glyph glyph-name="ä" unicode="&#xE4;" horiz-adv-x="975" d=" M78,221 Q78,369 108,429 Q139,490 189,532 Q240,575 312,599 Q382,623 465,623 Q532,623 604,605 Q678,586 729,553 L729,608 Q729,657 709,688 Q689,719 657,740 Q625,761 589,768 Q549,776 516,776 Q465,776 391,760 Q312,743 229,705 L150,907 Q227,943 325,969 Q423,995 539,995 Q742,995 858,897 Q975,798 975,633 L975,0 L748,0 L748,123 Q702,60 617,17 Q534,-25 432,-25 Q366,-25 298,-3 Q234,18 184,60 Q134,102 106,162 M195,1292 Q195,1360 242,1407 Q289,1454 356,1454 Q424,1454 471,1407 Q518,1360 518,1292 Q518,1225 471,1178 Q423,1130 356,1130 Q290,1130 242,1178 Q195,1225 195,1292 M328,305 Q328,265 344,242 Q361,217 386,204 Q414,189 442,185 Q475,180 500,180 Q586,180 641,216 Q695,251 729,293 L729,393 Q679,419 623,430 Q563,442 516,442 Q482,442 451,435 Q415,427 390,413 Q363,398 345,371 Q328,346 328,305 M616,1292 Q616,1359 664,1407 Q711,1454 778,1454 Q846,1454 893,1407 Q940,1360 940,1292 Q940,1225 893,1178 Q845,1130 778,1130 Q712,1130 664,1178 Q616,1226 616,1292"/> 
            <glyph glyph-name="å" unicode="&#xE5;" horiz-adv-x="975" d=" M78,221 Q78,369 108,429 Q139,490 189,532 Q240,575 312,599 Q382,623 465,623 Q532,623 604,605 Q678,586 729,553 L729,608 Q729,657 709,688 Q689,719 657,740 Q625,761 589,768 Q549,776 516,776 Q465,776 391,760 Q312,743 229,705 L150,907 Q227,943 325,969 Q423,995 539,995 Q742,995 858,897 Q975,798 975,633 L975,0 L748,0 L748,123 Q702,60 617,17 Q534,-25 432,-25 Q366,-25 298,-3 Q234,18 184,60 Q134,102 106,162 M299,1271 Q299,1379 319,1420 Q340,1464 374,1498 Q407,1531 453,1551 Q499,1571 549,1571 Q599,1571 645,1551 Q691,1531 724,1498 Q756,1466 778,1420 Q799,1376 799,1325 Q799,1274 778,1230 Q756,1184 724,1152 Q691,1119 645,1099 Q599,1079 549,1079 Q499,1079 453,1099 Q407,1119 374,1152 Q340,1186 319,1230 M328,305 Q328,265 344,242 Q361,217 386,204 Q414,189 442,185 Q475,180 500,180 Q586,180 641,216 Q695,251 729,293 L729,393 Q679,419 623,430 Q563,442 516,442 Q482,442 451,435 Q415,427 390,413 Q363,398 345,371 Q328,346 328,305 M438,1372 Q438,1278 470,1246 Q502,1214 549,1214 Q596,1214 628,1246 Q659,1277 659,1325 Q659,1373 628,1404 Q596,1436 549,1436 Q502,1436 438,1372"/> 
            <glyph glyph-name="æ" unicode="&#xE6;" horiz-adv-x="1714" d=" M78,291 Q78,347 97,397 Q116,447 161,487 Q205,526 273,550 Q339,573 440,573 L745,573 Q745,621 722,657 Q697,696 661,719 Q621,745 580,757 Q537,770 489,770 Q434,770 365,750 Q293,729 227,684 L119,877 Q181,920 286,958 Q387,995 504,995 Q585,995 643,978 Q707,959 750,935 Q793,911 824,881 Q850,856 870,831 Q936,907 1028,951 Q1121,995 1237,995 Q1340,995 1427,958 Q1517,920 1579,855 Q1641,790 1678,695 Q1714,602 1714,489 L1714,452 Q1714,437 1712,399 L993,399 Q1000,368 1023,330 Q1045,294 1079,266 Q1114,237 1161,219 Q1207,201 1268,201 Q1331,201 1401,223 Q1471,245 1530,299 L1653,115 Q1591,64 1493,20 Q1392,-25 1264,-25 Q1136,-25 1029,27 Q925,78 852,164 Q828,130 792,95 Q761,65 709,35 Q665,9 602,-8 Q540,-25 467,-25 Q383,-25 309,-2 Q236,21 186,62 Q135,104 106,162 Q78,218 78,291 M324,297 Q324,265 339,244 Q352,225 379,212 Q398,202 432,197 Q457,193 489,193 Q624,193 689,254 Q756,316 756,397 L475,397 Q396,397 360,371 Q324,345 324,297 M993,573 L1470,573 Q1468,605 1454,640 Q1438,678 1411,705 Q1383,733 1338,753 Q1296,772 1233,772 Q1171,772 1129,753 Q1086,734 1057,705 Q1029,677 1012,641 Q994,604 993,573"/> 
            <glyph glyph-name="ç" unicode="&#xE7;" horiz-adv-x="981" d=" M57,485 Q57,591 98,685 Q139,778 210,848 Q280,916 376,956 Q471,995 580,995 Q653,995 713,979 Q776,962 824,936 Q877,907 913,878 Q951,847 977,815 L807,664 Q771,706 713,735 Q651,766 580,766 Q519,766 467,743 Q414,720 381,682 Q347,643 327,593 Q307,542 307,485 Q307,429 327,377 Q347,324 382,288 Q419,249 468,227 Q516,205 582,205 Q667,205 729,243 Q790,280 819,324 L981,160 Q955,127 918,96 Q884,67 827,37 Q780,12 715,-7 Q654,-25 580,-25 Q469,-25 376,15 Q279,57 210,124 Q138,195 98,286 Q57,380 57,485 M287,-498 L434,-100 L653,-125 L514,-563"/> 
            <glyph glyph-name="è" unicode="&#xE8;" horiz-adv-x="1034" d=" M57,489 Q57,596 94,686 Q132,778 196,847 Q258,914 350,955 Q439,995 545,995 Q647,995 734,958 Q826,919 890,855 Q955,790 995,695 Q1034,602 1034,489 L1034,451 Q1034,435 1032,397 L307,397 Q314,366 337,328 Q360,291 394,265 Q432,236 477,219 Q523,201 584,201 Q647,201 717,223 Q787,245 846,299 L969,115 Q907,64 809,20 Q709,-25 580,-25 Q468,-25 374,14 Q280,53 208,123 Q138,192 97,287 Q57,380 57,489 M270,1421 L436,1583 L786,1227 L629,1077 M307,575 L788,575 Q786,605 771,641 Q756,676 726,706 Q696,736 651,754 Q606,772 545,772 Q486,772 442,754 Q402,737 370,707 Q341,679 325,643 Q308,605 307,575"/> 
            <glyph glyph-name="é" unicode="&#xE9;" horiz-adv-x="1034" d=" M57,489 Q57,596 94,686 Q132,778 196,847 Q258,914 350,955 Q439,995 545,995 Q647,995 734,958 Q826,919 890,855 Q955,790 995,695 Q1034,602 1034,489 L1034,451 Q1034,435 1032,397 L307,397 Q314,366 337,328 Q360,291 394,265 Q432,236 477,219 Q523,201 584,201 Q647,201 717,223 Q787,245 846,299 L969,115 Q907,64 809,20 Q709,-25 580,-25 Q468,-25 374,14 Q280,53 208,123 Q138,192 97,287 Q57,380 57,489 M307,575 L788,575 Q786,605 771,641 Q756,676 726,706 Q696,736 651,754 Q606,772 545,772 Q486,772 442,754 Q402,737 370,707 Q341,679 325,643 Q308,605 307,575 M336,1227 L686,1583 L852,1421 L494,1077"/> 
            <glyph glyph-name="ê" unicode="&#xEA;" horiz-adv-x="1034" d=" M57,489 Q57,596 94,686 Q132,778 196,847 Q258,914 350,955 Q439,995 545,995 Q647,995 734,958 Q826,919 890,855 Q955,790 995,695 Q1034,602 1034,489 L1034,451 Q1034,435 1032,397 L307,397 Q314,366 337,328 Q360,291 394,265 Q432,236 477,219 Q523,201 584,201 Q647,201 717,223 Q787,245 846,299 L969,115 Q907,64 809,20 Q709,-25 580,-25 Q468,-25 374,14 Q280,53 208,123 Q138,192 97,287 Q57,380 57,489 M174,1266 L555,1540 L936,1266 L801,1098 L555,1284 L305,1098 M307,575 L788,575 Q786,605 771,641 Q756,676 726,706 Q696,736 651,754 Q606,772 545,772 Q486,772 442,754 Q402,737 370,707 Q341,679 325,643 Q308,605 307,575"/> 
            <glyph glyph-name="ë" unicode="&#xEB;" horiz-adv-x="1034" d=" M57,489 Q57,596 94,686 Q132,778 196,847 Q258,914 350,955 Q439,995 545,995 Q647,995 734,958 Q826,919 890,855 Q955,790 995,695 Q1034,602 1034,489 L1034,451 Q1034,435 1032,397 L307,397 Q314,366 337,328 Q360,291 394,265 Q432,236 477,219 Q523,201 584,201 Q647,201 717,223 Q787,245 846,299 L969,115 Q907,64 809,20 Q709,-25 580,-25 Q468,-25 374,14 Q280,53 208,123 Q138,192 97,287 Q57,380 57,489 M172,1292 Q172,1360 219,1407 Q266,1454 334,1454 Q402,1454 449,1407 Q496,1360 496,1292 Q496,1225 449,1178 Q401,1130 334,1130 Q267,1130 219,1178 Q172,1225 172,1292 M307,575 L788,575 Q786,605 771,641 Q756,676 726,706 Q696,736 651,754 Q606,772 545,772 Q486,772 442,754 Q402,737 370,707 Q341,679 325,643 Q308,605 307,575 M594,1292 Q594,1360 641,1407 Q688,1454 756,1454 Q823,1454 870,1407 Q918,1359 918,1292 Q918,1226 870,1178 Q822,1130 756,1130 Q689,1130 641,1178 Q594,1225 594,1292"/> 
            <glyph glyph-name="ì" unicode="&#xEC;" horiz-adv-x="516" d=" M0,1423 L166,1585 L516,1229 L358,1079 M160,0 L160,971 L406,971 L406,0"/> 
            <glyph glyph-name="í" unicode="&#xED;" horiz-adv-x="569" d=" M53,1227 L403,1583 L569,1421 L211,1077 M152,0 L152,971 L397,971 L397,0"/> 
            <glyph glyph-name="î" unicode="&#xEE;" horiz-adv-x="698" d=" M-63,1266 L317,1540 L698,1266 L563,1098 L317,1284 L68,1098 M193,0 L193,971 L438,971 L438,0"/> 
            <glyph glyph-name="ï" unicode="&#xEF;" horiz-adv-x="659" d=" M-86,1292 Q-86,1360 -39,1407 Q8,1454 76,1454 Q143,1454 190,1407 Q238,1359 238,1292 Q238,1226 190,1178 Q142,1130 76,1130 Q9,1130 -39,1178 Q-86,1225 -86,1292 M162,0 L162,971 L408,971 L408,0 M336,1292 Q336,1360 383,1407 Q430,1454 498,1454 Q565,1454 612,1407 Q659,1360 659,1292 Q659,1225 612,1178 Q564,1130 498,1130 Q431,1130 383,1178 Q336,1225 336,1292"/> 
            <glyph glyph-name="ð" unicode="&#xF0;" horiz-adv-x="1083" d=" M57,485 Q57,593 97,685 Q138,779 207,848 Q275,916 370,956 Q463,995 569,995 Q614,995 660,987 Q702,980 748,956 Q709,1017 651,1078 Q593,1139 539,1186 L240,1049 L166,1208 L373,1305 Q325,1333 266,1363 L168,1413 L264,1595 Q352,1552 424,1512 Q517,1460 592,1407 L852,1528 L926,1368 L745,1284 Q821,1214 880,1140 Q941,1063 987,971 Q1033,879 1058,780 Q1083,681 1083,569 Q1083,432 1043,322 Q1001,207 935,134 Q864,56 772,16 Q676,-25 571,-25 Q463,-25 370,14 Q277,53 207,123 Q138,192 97,285 Q57,375 57,485 M303,485 Q303,431 322,377 Q340,325 376,288 Q414,248 461,227 Q509,205 571,205 Q634,205 682,227 Q729,248 767,288 Q803,325 821,377 Q840,431 840,485 Q840,541 821,593 Q803,643 767,682 Q731,721 682,743 Q631,766 571,766 Q512,766 461,743 Q412,721 376,682 Q340,643 322,593 Q303,541 303,485"/> 
            <glyph glyph-name="ñ" unicode="&#xF1;" horiz-adv-x="999" d=" M123,0 L123,971 L352,971 L352,829 Q368,856 394,886 Q420,916 457,940 Q499,967 540,980 Q586,995 645,995 Q714,995 779,971 Q841,948 893,899 Q942,853 971,784 Q999,718 999,629 L999,0 L754,0 L754,567 Q754,672 697,719 Q639,766 567,766 Q489,766 442,725 Q397,685 369,641 L369,0 M156,1260 Q197,1367 271,1419 Q348,1473 424,1473 Q470,1473 513,1454 Q548,1438 587,1413 L650,1372 Q680,1354 711,1354 Q757,1354 784,1397 Q810,1439 821,1487 L989,1354 Q948,1240 874,1188 Q800,1137 727,1137 Q678,1137 639,1155 Q609,1169 566,1195 L502,1235 Q472,1253 440,1253 Q396,1253 367,1215 Q338,1177 328,1135"/> 
            <glyph glyph-name="ò" unicode="&#xF2;" horiz-adv-x="1094" d=" M57,485 Q57,593 97,685 Q138,780 208,848 Q278,917 373,956 Q468,995 575,995 Q684,995 778,956 Q872,917 943,848 Q1013,780 1054,685 Q1094,593 1094,485 Q1094,378 1054,286 Q1014,193 943,124 Q873,56 778,15 Q685,-25 575,-25 Q466,-25 373,15 Q278,56 208,124 Q138,193 97,286 Q57,378 57,485 M256,1423 L422,1585 L772,1229 L614,1079 M307,485 Q307,431 326,377 Q344,326 379,288 Q414,250 464,227 Q512,205 575,205 Q639,205 687,227 Q737,250 772,288 Q807,326 825,377 Q844,431 844,485 Q844,541 825,593 Q807,642 772,682 Q739,719 687,743 Q636,766 575,766 Q515,766 464,743 Q412,719 379,682 Q344,642 326,593 Q307,541 307,485"/> 
            <glyph glyph-name="ó" unicode="&#xF3;" horiz-adv-x="1094" d=" M57,485 Q57,593 97,685 Q138,780 208,848 Q278,917 373,956 Q468,995 575,995 Q684,995 778,956 Q872,917 943,848 Q1013,780 1054,685 Q1094,593 1094,485 Q1094,378 1054,286 Q1014,193 943,124 Q873,56 778,15 Q685,-25 575,-25 Q466,-25 373,15 Q278,56 208,124 Q138,193 97,286 Q57,378 57,485 M307,485 Q307,431 326,377 Q344,326 379,288 Q414,250 464,227 Q512,205 575,205 Q639,205 687,227 Q737,250 772,288 Q807,326 825,377 Q844,431 844,485 Q844,541 825,593 Q807,642 772,682 Q739,719 687,743 Q636,766 575,766 Q515,766 464,743 Q412,719 379,682 Q344,642 326,593 Q307,541 307,485 M379,1227 L729,1583 L895,1421 L537,1077"/> 
            <glyph glyph-name="ô" unicode="&#xF4;" horiz-adv-x="1094" d=" M57,485 Q57,593 97,685 Q138,780 208,848 Q278,917 373,956 Q468,995 575,995 Q684,995 778,956 Q872,917 943,848 Q1013,780 1054,685 Q1094,593 1094,485 Q1094,378 1054,286 Q1014,193 943,124 Q873,56 778,15 Q685,-25 575,-25 Q466,-25 373,15 Q278,56 208,124 Q138,193 97,286 Q57,378 57,485 M195,1241 L575,1516 L956,1241 L821,1073 L575,1260 L326,1073 M307,485 Q307,431 326,377 Q344,326 379,288 Q414,250 464,227 Q512,205 575,205 Q639,205 687,227 Q737,250 772,288 Q807,326 825,377 Q844,431 844,485 Q844,541 825,593 Q807,642 772,682 Q739,719 687,743 Q636,766 575,766 Q515,766 464,743 Q412,719 379,682 Q344,642 326,593 Q307,541 307,485"/> 
            <glyph glyph-name="õ" unicode="&#xF5;" horiz-adv-x="1094" d=" M57,485 Q57,593 97,685 Q138,780 208,848 Q278,917 373,956 Q468,995 575,995 Q684,995 778,956 Q872,917 943,848 Q1013,780 1054,685 Q1094,593 1094,485 Q1094,378 1054,286 Q1014,193 943,124 Q873,56 778,15 Q685,-25 575,-25 Q466,-25 373,15 Q278,56 208,124 Q138,193 97,286 Q57,378 57,485 M164,1251 Q205,1358 280,1411 Q356,1464 432,1464 Q480,1464 521,1446 Q556,1430 595,1405 L658,1364 Q688,1346 719,1346 Q766,1346 793,1389 Q818,1429 829,1479 L997,1346 Q956,1231 883,1180 Q808,1128 735,1128 Q688,1128 647,1147 Q617,1161 574,1187 L510,1227 Q480,1245 449,1245 Q404,1245 375,1207 Q346,1170 336,1126 M307,485 Q307,431 326,377 Q344,326 379,288 Q414,250 464,227 Q512,205 575,205 Q639,205 687,227 Q737,250 772,288 Q807,326 825,377 Q844,431 844,485 Q844,541 825,593 Q807,642 772,682 Q739,719 687,743 Q636,766 575,766 Q515,766 464,743 Q412,719 379,682 Q344,642 326,593 Q307,541 307,485"/> 
            <glyph glyph-name="ö" unicode="&#xF6;" horiz-adv-x="1094" d=" M57,485 Q57,593 97,685 Q138,780 208,848 Q278,917 373,956 Q468,995 575,995 Q684,995 778,956 Q872,917 943,848 Q1013,780 1054,685 Q1094,593 1094,485 Q1094,378 1054,286 Q1014,193 943,124 Q873,56 778,15 Q685,-25 575,-25 Q466,-25 373,15 Q278,56 208,124 Q138,193 97,286 Q57,378 57,485 M203,1292 Q203,1360 250,1407 Q297,1454 365,1454 Q432,1454 479,1407 Q526,1360 526,1292 Q526,1225 479,1178 Q431,1130 365,1130 Q298,1130 250,1178 Q203,1225 203,1292 M307,485 Q307,431 326,377 Q344,326 379,288 Q414,250 464,227 Q512,205 575,205 Q639,205 687,227 Q737,250 772,288 Q807,326 825,377 Q844,431 844,485 Q844,541 825,593 Q807,642 772,682 Q739,719 687,743 Q636,766 575,766 Q515,766 464,743 Q412,719 379,682 Q344,642 326,593 Q307,541 307,485 M625,1292 Q625,1360 672,1407 Q719,1454 786,1454 Q854,1454 901,1407 Q948,1360 948,1292 Q948,1225 901,1178 Q853,1130 786,1130 Q720,1130 672,1178 Q625,1225 625,1292"/> 
            <glyph glyph-name="÷" unicode="&#xF7;" horiz-adv-x="993" d=" M72,373 L72,598 L993,598 L993,373 M369,137 Q369,205 416,252 Q463,299 530,299 Q598,299 645,252 Q692,205 692,137 Q692,70 645,23 Q597,-25 530,-25 Q464,-25 416,23 Q369,70 369,137 M369,834 Q369,901 416,948 Q463,995 530,995 Q598,995 645,948 Q692,901 692,834 Q692,766 645,719 Q598,672 530,672 Q463,672 416,719 Q369,766 369,834"/> 
            <glyph glyph-name="ø" unicode="&#xF8;" horiz-adv-x="1102" d=" M66,485 Q66,595 105,685 Q146,780 216,848 Q286,917 381,956 Q476,995 584,995 Q665,995 732,975 Q806,953 862,918 L950,1022 L1049,940 L961,836 Q1025,770 1064,679 Q1102,589 1102,485 Q1102,378 1062,286 Q1022,193 951,124 Q881,56 786,15 Q693,-25 584,-25 Q505,-25 433,-4 Q358,18 301,55 L207,-55 L109,27 L203,137 Q138,204 101,294 Q66,380 66,485 M315,483 Q315,440 327,399 Q340,354 360,324 L709,737 Q656,766 584,766 Q523,766 472,743 Q420,719 387,682 Q352,642 334,592 Q315,538 315,483 M453,236 Q510,205 582,205 Q647,205 695,227 Q745,250 780,288 Q817,328 834,377 Q852,428 852,485 Q852,578 805,651"/> 
            <glyph glyph-name="ù" unicode="&#xF9;" horiz-adv-x="999" d=" M123,342 L123,971 L369,971 L369,410 Q369,301 418,253 Q468,205 551,205 Q629,205 676,241 Q725,279 754,324 L754,971 L999,971 L999,0 L770,0 L770,141 Q753,114 725,83 Q698,53 662,30 Q623,5 579,-9 Q529,-25 477,-25 Q412,-25 345,0 Q283,23 231,72 Q184,116 153,186 Q123,254 123,342 M258,1423 L424,1585 L774,1229 L616,1079"/> 
            <glyph glyph-name="ú" unicode="&#xFA;" horiz-adv-x="999" d=" M123,342 L123,971 L369,971 L369,410 Q369,301 418,253 Q468,205 551,205 Q629,205 676,241 Q725,279 754,324 L754,971 L999,971 L999,0 L770,0 L770,141 Q753,114 725,83 Q698,53 662,30 Q623,5 579,-9 Q529,-25 477,-25 Q412,-25 345,0 Q283,23 231,72 Q184,116 153,186 Q123,254 123,342 M367,1227 L717,1583 L883,1421 L524,1077"/> 
            <glyph glyph-name="û" unicode="&#xFB;" horiz-adv-x="999" d=" M123,342 L123,971 L369,971 L369,410 Q369,301 418,253 Q468,205 551,205 Q629,205 676,241 Q725,279 754,324 L754,971 L999,971 L999,0 L770,0 L770,141 Q753,114 725,83 Q698,53 662,30 Q623,5 579,-9 Q529,-25 477,-25 Q412,-25 345,0 Q283,23 231,72 Q184,116 153,186 Q123,254 123,342 M182,1241 L563,1516 L944,1241 L809,1073 L563,1260 L313,1073"/> 
            <glyph glyph-name="ü" unicode="&#xFC;" horiz-adv-x="999" d=" M123,342 L123,971 L369,971 L369,410 Q369,301 418,253 Q468,205 551,205 Q629,205 676,241 Q725,279 754,324 L754,971 L999,971 L999,0 L770,0 L770,141 Q753,114 725,83 Q698,53 662,30 Q623,5 579,-9 Q529,-25 477,-25 Q412,-25 345,0 Q283,23 231,72 Q184,116 153,186 Q123,254 123,342 M193,1292 Q193,1360 240,1407 Q287,1454 354,1454 Q422,1454 469,1407 Q516,1360 516,1292 Q516,1225 469,1178 Q421,1130 354,1130 Q288,1130 240,1178 Q193,1225 193,1292 M614,1292 Q614,1359 662,1407 Q709,1454 776,1454 Q844,1454 891,1407 Q938,1360 938,1292 Q938,1225 891,1178 Q843,1130 776,1130 Q710,1130 662,1178 Q614,1226 614,1292"/> 
            <glyph glyph-name="ý" unicode="&#xFD;" horiz-adv-x="1137" d=" M16,971 L289,971 L616,260 L872,971 L1137,971 L666,-217 Q636,-296 593,-350 Q549,-404 505,-436 Q460,-468 409,-482 Q358,-496 309,-496 Q226,-496 156,-465 Q90,-436 41,-393 L156,-203 Q194,-236 227,-252 Q255,-266 295,-266 Q354,-266 387,-233 Q422,-198 451,-123 L489,-23 M393,1227 L743,1583 L909,1421 L551,1077"/> 
            <glyph glyph-name="þ" unicode="&#xFE;" horiz-adv-x="1145" d=" M152,-471 L152,1548 L397,1548 L397,868 Q405,878 432,905 Q456,929 488,947 Q522,966 568,981 Q611,995 674,995 Q765,995 852,957 Q938,920 1002,852 Q1067,784 1106,691 Q1145,598 1145,485 Q1145,373 1106,279 Q1067,185 1002,117 Q938,50 852,12 Q768,-25 674,-25 Q616,-25 568,-11 Q522,2 488,23 Q450,46 432,63 Q407,87 397,100 L397,-471 M397,340 Q427,287 485,246 Q543,205 633,205 Q753,205 824,285 Q895,365 895,485 Q895,606 824,686 Q753,766 633,766 Q543,766 485,725 Q427,684 397,631"/> 
            <glyph glyph-name="ÿ" unicode="&#xFF;" horiz-adv-x="1137" d=" M16,971 L289,971 L616,260 L872,971 L1137,971 L666,-217 Q636,-296 593,-350 Q549,-404 505,-436 Q460,-468 409,-482 Q358,-496 309,-496 Q226,-496 156,-465 Q90,-436 41,-393 L156,-203 Q194,-236 227,-252 Q255,-266 295,-266 Q354,-266 387,-233 Q422,-198 451,-123 L489,-23 M217,1292 Q217,1360 264,1407 Q311,1454 379,1454 Q447,1454 494,1407 Q541,1360 541,1292 Q541,1225 494,1178 Q446,1130 379,1130 Q312,1130 264,1178 Q217,1225 217,1292 M639,1292 Q639,1360 686,1407 Q733,1454 801,1454 Q868,1454 915,1407 Q963,1359 963,1292 Q963,1226 915,1178 Q867,1130 801,1130 Q734,1130 686,1178 Q639,1225 639,1292"/> 
            <glyph glyph-name="Œ" unicode="&#x152;" horiz-adv-x="1606" d=" M61,717 Q61,869 117,1001 Q174,1136 269,1229 Q366,1325 497,1379 Q630,1434 776,1434 L1593,1434 L1593,1204 L1073,1204 L1073,852 L1544,852 L1544,618 L1073,618 L1073,229 L1606,229 L1606,0 L776,0 Q628,0 497,54 Q368,107 269,205 Q174,299 117,432 Q61,564 61,717 M311,814 Q311,620 346,530 Q380,443 442,375 Q504,307 589,268 Q674,229 776,229 L827,229 L827,1204 L776,1204 Q674,1204 589,1165 Q504,1126 442,1060 Q382,995 346,904"/> 
            <glyph glyph-name="œ" unicode="&#x153;" horiz-adv-x="1819" d=" M57,485 Q57,593 97,685 Q138,780 208,848 Q278,917 372,956 Q465,995 573,995 Q689,995 791,948 Q889,903 963,821 Q1031,903 1124,948 Q1221,995 1339,995 Q1445,995 1531,958 Q1618,921 1682,855 Q1747,789 1783,695 Q1819,602 1819,489 L1819,452 Q1819,437 1817,399 L1098,399 Q1105,366 1127,330 Q1148,296 1184,266 Q1219,237 1266,219 Q1312,201 1372,201 Q1435,201 1505,223 Q1575,245 1634,299 L1757,115 Q1695,64 1597,20 Q1496,-25 1368,-25 Q1249,-25 1142,23 Q1039,69 967,152 Q895,68 794,22 Q691,-25 575,-25 Q466,-25 373,15 Q278,56 208,124 Q138,193 97,286 Q57,378 57,485 M303,485 Q303,429 323,377 Q343,325 377,288 Q412,250 462,227 Q510,205 573,205 Q637,205 685,227 Q735,250 770,288 Q804,325 824,377 Q844,429 844,485 Q844,542 824,593 Q804,643 770,682 Q737,719 685,743 Q634,766 573,766 Q513,766 462,743 Q410,719 377,682 Q343,643 323,593 Q303,542 303,485 M1098,573 L1575,573 Q1573,605 1559,640 Q1543,678 1516,705 Q1488,733 1443,753 Q1401,772 1337,772 Q1276,772 1234,753 Q1189,733 1161,705 Q1133,677 1116,641 Q1100,607 1098,573"/> 
            <glyph glyph-name="Ÿ" unicode="&#x178;" horiz-adv-x="1241" d=" M16,1434 L287,1434 L637,793 L987,1434 L1241,1434 L752,565 L752,0 L506,0 L506,565 M256,1675 Q256,1811 303,1858 Q350,1905 418,1905 Q485,1905 532,1858 Q580,1810 580,1743 Q580,1676 532,1628 Q485,1581 418,1581 Q350,1581 256,1675 M678,1675 Q678,1811 725,1858 Q772,1905 840,1905 Q907,1905 954,1858 Q1001,1811 1001,1743 Q1001,1675 954,1628 Q907,1581 840,1581 Q772,1581 678,1675"/> 
            <glyph glyph-name="ˆ" unicode="&#x2C6;" horiz-adv-x="815" d=" M53,1221 L434,1495 L815,1221 L680,1053 L434,1239 L184,1053"/> 
            <glyph glyph-name="˜" unicode="&#x2DC;" horiz-adv-x="852" d=" M18,1225 Q58,1331 134,1384 Q211,1438 287,1438 Q333,1438 376,1419 Q411,1403 450,1378 L513,1337 Q543,1319 573,1319 Q620,1319 647,1362 Q673,1404 684,1452 L852,1319 Q811,1205 737,1153 Q664,1102 590,1102 Q541,1102 502,1120 Q472,1134 429,1160 L365,1200 Q333,1219 303,1219 Q258,1219 229,1181 Q200,1144 190,1100"/> 
            <glyph glyph-name="‐" unicode="&#x2010;" horiz-adv-x="614" d=" M68,389 L68,623 L614,623 L614,389"/> 
            <glyph glyph-name="‑" unicode="&#x2011;" horiz-adv-x="614" d=" M68,389 L68,623 L614,623 L614,389"/> 
            <glyph glyph-name="‒" unicode="&#x2012;" horiz-adv-x="614" d=" M68,389 L68,623 L614,623 L614,389"/> 
            <glyph glyph-name="–" unicode="&#x2013;" horiz-adv-x="1024" d=" M0,397 L0,623 L1024,623 L1024,397"/> 
            <glyph glyph-name="—" unicode="&#x2014;" horiz-adv-x="2048" d=" M0,397 L0,623 L2048,623 L2048,397"/> 
            <glyph glyph-name="‘" unicode="&#x2018;" horiz-adv-x="299" d=" M82,930 L82,1434 L299,1434 L299,930"/> 
            <glyph glyph-name="’" unicode="&#x2019;" horiz-adv-x="299" d=" M82,930 L82,1434 L299,1434 L299,930"/> 
            <glyph glyph-name="“" unicode="&#x201C;" horiz-adv-x="696" d=" M123,926 L123,1434 L340,1434 L340,926 M479,926 L479,1434 L696,1434 L696,926"/> 
            <glyph glyph-name="”" unicode="&#x201D;" horiz-adv-x="696" d=" M123,926 L123,1434 L340,1434 L340,926 M479,926 L479,1434 L696,1434 L696,926"/> 
            <glyph glyph-name="„" unicode="&#x201E;" horiz-adv-x="696" d=" M123,221 L340,221 L340,-287 L123,-287 M479,221 L696,221 L696,-287 L479,-287"/> 
            <glyph glyph-name="•" unicode="&#x2022;" horiz-adv-x="711" d=" M121,711 Q121,775 144,825 Q169,880 208,919 Q246,957 301,982 Q353,1006 416,1006 Q478,1006 530,982 Q587,956 624,919 Q661,882 687,825 Q711,772 711,711 Q711,648 687,596 Q662,541 624,503 Q585,464 530,439 Q480,416 416,416 Q351,416 301,439 Q248,463 208,503 Q168,543 144,596 Q121,646 121,711"/> 
            <glyph glyph-name="…" unicode="&#x2026;" horiz-adv-x="1841" d=" M205,137 Q205,205 252,252 Q299,299 367,299 Q434,299 481,252 Q528,205 528,137 Q528,70 481,23 Q433,-25 367,-25 Q300,-25 252,23 Q205,70 205,137 M860,137 Q860,205 907,252 Q954,299 1022,299 Q1090,299 1137,252 Q1184,205 1184,137 Q1184,70 1137,23 Q1089,-25 1022,-25 Q955,-25 907,23 Q860,70 860,137 M1518,137 Q1518,205 1565,252 Q1612,299 1679,299 Q1747,299 1794,252 Q1841,205 1841,137 Q1841,70 1794,23 Q1746,-25 1679,-25 Q1613,-25 1565,23 Q1518,70 1518,137"/> 
            <glyph glyph-name="‹" unicode="&#x2039;" horiz-adv-x="561" d=" M18,502 L393,985 L561,856 L279,502 L561,147 L393,18"/> 
            <glyph glyph-name="›" unicode="&#x203A;" horiz-adv-x="653" d=" M111,147 L393,502 L111,856 L279,985 L653,502 L279,18"/> 
            <glyph glyph-name="€" unicode="&#x20AC;" horiz-adv-x="1149" d=" M45,473 L45,645 L201,645 Q199,667 199,680 L199,717 Q199,742 200,754 Q201,766 203,788 L45,788 L45,961 L225,961 Q255,1068 318,1160 Q382,1253 466,1318 Q551,1383 656,1421 Q760,1458 881,1458 Q965,1458 1031,1443 Q1092,1429 1149,1409 L1075,1200 Q1053,1208 999,1222 Q956,1233 889,1233 Q738,1233 635,1159 Q532,1084 481,961 L909,961 L909,788 L440,788 Q434,750 434,717 L434,680 Q434,660 438,645 L909,645 L909,473 L469,473 Q518,352 620,279 Q723,205 881,205 Q942,205 990,214 Q1042,224 1063,233 L1135,25 Q1090,5 1028,-9 Q958,-25 870,-25 Q736,-25 629,12 Q519,50 437,116 Q353,183 297,273 Q238,367 209,473"/> 
            <glyph glyph-name="™" unicode="&#x2122;" horiz-adv-x="1542" d=" M43,1264 L43,1434 L643,1434 L643,1264 L432,1264 L432,676 L254,676 L254,1264 M735,676 L735,1434 L907,1434 L1143,1057 L1376,1434 L1542,1434 L1542,676 L1364,676 L1364,1118 L1139,764 L913,1118 L913,676"/> 
            <glyph glyph-name="◼" unicode="&#x25FC;" horiz-adv-x="973" d=" M0,0 L0,973 L973,973 L973,0"/> 
            <glyph glyph-name=" " unicode="&#x20;" horiz-adv-x="475" d=" M152,137 Q152,205 199,252 Q246,299 313,299 Q381,299 428,252 Q475,205 475,137 Q475,70 428,23 Q380,-25 313,-25 Q247,-25 199,23 Q152,70 152,137 M186,1434 L440,1434 L430,410 L197,410"/> 
            <glyph glyph-name="!" unicode="&#x21;" horiz-adv-x="696" d=" M123,926 L123,1434 L340,1434 L340,926 M479,926 L479,1434 L696,1434 L696,926"/> 
            <glyph glyph-name="&quot;" unicode="&#x22;" horiz-adv-x="1233" d=" M80,430 L80,610 L346,610 L381,856 L141,856 L141,1036 L406,1036 L467,1468 L645,1444 L588,1036 L811,1036 L872,1468 L1051,1444 L993,1036 L1233,1036 L1233,856 L969,856 L934,610 L1171,610 L1171,430 L909,430 L844,-35 L664,-10 L725,430 L504,430 L438,-35 L258,-10 L319,430 M528,610 L752,610 L786,856 L563,856"/> 
            <glyph glyph-name="#" unicode="&#x23;" horiz-adv-x="1110" d=" M84,264 L274,416 Q288,390 322,349 Q350,315 386,288 Q427,258 465,239 Q513,216 555,209 L555,616 Q486,640 413,678 Q338,717 282,766 Q222,819 185,886 Q147,956 147,1044 Q147,1116 175,1188 Q202,1257 255,1313 Q308,1369 383,1406 Q460,1444 555,1454 L555,1626 L684,1626 L684,1454 Q746,1448 804,1427 Q866,1405 913,1377 Q975,1341 1006,1314 Q1045,1281 1073,1245 L889,1092 Q863,1128 805,1167 Q749,1205 684,1221 L684,819 Q688,816 696,814 Q704,812 707,811 Q781,783 855,748 Q927,714 985,663 Q1041,615 1076,544 Q1110,476 1110,381 Q1110,286 1075,214 Q1040,144 982,94 Q923,44 846,16 Q768,-12 684,-20 L684,-193 L555,-193 L555,-23 Q473,-17 400,12 Q327,41 266,81 Q203,122 158,169 Q111,218 84,264 M397,1049 Q397,986 437,946 Q480,903 555,870 L555,1221 Q484,1205 440,1159 Q397,1115 397,1049 M684,211 Q752,223 806,262 Q860,301 860,381 Q860,448 815,492 Q772,533 684,569"/> 
            <glyph glyph-name="$" unicode="&#x24;" horiz-adv-x="1413" d=" M45,1066 Q45,1200 72,1260 Q99,1321 143,1363 Q189,1408 249,1433 Q308,1458 377,1458 Q446,1458 505,1433 Q563,1408 610,1363 Q655,1319 682,1260 Q709,1200 709,1133 Q709,1066 682,1006 Q655,945 610,902 Q565,858 505,833 Q444,807 377,807 Q310,807 249,833 Q187,859 143,902 Q100,943 72,1006 M182,14 L1147,1497 L1264,1417 L299,-66 M209,1133 Q209,1062 256,1013 Q302,965 377,965 Q450,965 496,1013 Q543,1062 543,1133 Q543,1203 496,1252 Q450,1300 377,1300 Q302,1300 256,1252 Q209,1203 209,1133 M750,232 Q750,370 776,428 Q803,487 848,531 Q895,576 953,601 Q1014,627 1081,627 Q1148,627 1209,601 Q1269,576 1315,531 Q1359,489 1386,428 Q1413,368 1413,301 Q1413,234 1386,174 Q1359,113 1315,71 Q1269,26 1209,1 Q1148,-25 1081,-25 Q1014,-25 953,1 Q895,26 848,71 Q803,115 776,174 M913,371 Q913,231 961,181 Q1008,133 1081,133 Q1154,133 1200,181 Q1247,230 1247,301 Q1247,372 1200,421 Q1154,469 1081,469 Q1008,469 961,421"/> 
            <glyph glyph-name="%" unicode="&#x25;" horiz-adv-x="1423" d=" M111,363 Q111,413 125,456 Q141,506 173,549 Q211,600 261,646 Q318,699 393,756 Q280,858 237,936 Q193,1015 193,1096 Q193,1168 221,1233 Q250,1299 301,1349 Q350,1397 425,1428 Q497,1458 584,1458 Q670,1458 742,1428 Q817,1397 866,1349 Q917,1300 946,1232 Q975,1165 975,1090 Q975,1043 964,1009 Q951,970 927,931 Q904,895 856,845 Q811,798 743,741 L1008,508 Q1017,520 1021,547 Q1026,577 1030,614 Q1034,653 1036,698 Q1038,758 1038,786 L1274,786 Q1274,625 1247,508 Q1220,392 1190,348 L1423,143 L1280,-25 L1061,170 Q983,83 861,30 Q734,-25 592,-25 Q485,-25 395,7 Q309,37 244,92 Q180,146 145,215 Q111,283 111,363 M356,367 Q356,325 377,295 Q400,262 430,243 Q464,221 505,211 Q545,201 592,201 Q680,201 760,237 Q840,273 889,322 L563,606 L458,515 Q415,477 395,454 Q372,428 365,409 Q356,386 356,367 M430,1092 Q430,1039 468,996 Q500,960 578,887 Q626,928 660,962 Q695,997 709,1016 Q726,1039 730,1056 Q735,1076 735,1090 Q735,1158 686,1195 Q636,1233 582,1233 Q524,1233 477,1194 Q430,1155 430,1092"/> 
            <glyph glyph-name="&amp;" unicode="&#x26;" horiz-adv-x="299" d=" M82,930 L82,1434 L299,1434 L299,930"/> 
            <glyph glyph-name="'" unicode="&#x27;" horiz-adv-x="602" d=" M98,604 Q98,752 125,890 Q153,1032 195,1150 Q240,1276 292,1374 Q347,1479 401,1554 L602,1434 Q556,1370 510,1282 Q460,1188 425,1087 Q388,983 364,858 Q340,735 340,604 Q340,470 364,349 Q389,224 425,121 Q460,20 510,-74 Q554,-158 602,-225 L401,-348 Q348,-273 294,-172 Q242,-74 197,52 Q152,177 126,313 Q98,458 98,604"/> 
            <glyph glyph-name="(" unicode="&#x28;" horiz-adv-x="541" d=" M37,-225 Q85,-158 129,-74 Q179,20 214,121 Q250,224 275,349 Q299,470 299,604 Q299,735 275,858 Q251,983 214,1087 Q179,1188 129,1282 Q83,1370 37,1434 L238,1554 Q292,1479 347,1374 Q399,1276 444,1150 Q486,1032 514,890 Q541,752 541,604 Q541,458 513,313 Q487,177 442,52 Q397,-74 345,-172 Q291,-273 238,-348"/> 
            <glyph glyph-name=")" unicode="&#x29;" horiz-adv-x="803" d=" M12,1110 L68,1272 L322,1188 L322,1458 L494,1458 L494,1188 L748,1272 L803,1110 L543,1028 L700,813 L559,713 L408,928 L256,713 L115,813 L272,1028"/> 
            <glyph glyph-name="*" unicode="&#x2A;" horiz-adv-x="1018" d=" M47,389 L47,618 L410,618 L410,995 L655,995 L655,618 L1018,618 L1018,389 L655,389 L655,0 L410,0 L410,389"/> 
            <glyph glyph-name="+" unicode="&#x2B;" horiz-adv-x="408" d=" M41,-285 L203,199 L408,127 L229,-350"/> 
            <glyph glyph-name="," unicode="&#x2C;" horiz-adv-x="614" d=" M68,389 L68,623 L614,623 L614,389"/> 
            <glyph glyph-name="-" unicode="&#x2D;" horiz-adv-x="430" d=" M106,137 Q106,204 154,252 Q201,299 268,299 Q336,299 383,252 Q430,205 430,137 Q430,70 383,23 Q335,-25 268,-25 Q202,-25 154,23 Q106,71 106,137"/> 
            <glyph glyph-name="." unicode="&#x2E;" horiz-adv-x="1028" d=" M12,-201 L831,1638 L1028,1550 L209,-289"/> 
            <glyph glyph-name="/" unicode="&#x2F;" horiz-adv-x="1159" d=" M82,717 Q82,862 115,996 Q149,1133 215,1233 Q283,1336 384,1397 Q485,1458 623,1458 Q760,1458 860,1397 Q961,1335 1027,1233 Q1092,1132 1126,996 Q1159,862 1159,717 Q1159,570 1126,437 Q1093,303 1027,201 Q961,99 860,37 Q759,-25 623,-25 Q487,-25 384,37 Q283,98 215,201 Q148,301 115,437 Q82,570 82,717 M328,717 Q328,612 346,519 Q365,423 401,356 Q439,286 494,246 Q550,205 623,205 Q696,205 752,246 Q806,286 843,356 Q877,421 896,519 Q913,607 913,717 Q913,826 896,914 Q877,1012 843,1077 Q805,1149 752,1188 Q696,1229 623,1229 Q550,1229 494,1188 Q440,1148 401,1077 Q365,1010 346,914 Q328,821 328,717"/> 
            <glyph glyph-name="0" unicode="&#x30;" horiz-adv-x="672" d=" M33,1085 L469,1434 L672,1434 L672,0 L426,0 L426,1106 L174,905"/> 
            <glyph glyph-name="1" unicode="&#x31;" horiz-adv-x="1026" d=" M82,0 L608,668 Q617,680 655,726 Q687,765 711,802 Q738,843 756,894 Q774,944 774,1001 Q774,1097 718,1162 Q660,1229 557,1229 Q460,1229 393,1168 Q327,1108 305,1020 L86,1100 Q108,1168 145,1230 Q185,1296 243,1345 Q302,1395 382,1426 Q464,1458 567,1458 Q680,1458 764,1422 Q849,1386 905,1325 Q963,1262 991,1183 Q1020,1101 1020,1014 Q1020,945 1006,892 Q991,835 972,791 Q954,751 931,712 Q909,676 895,659 L565,233 L1026,233 L1026,0"/> 
            </font>
</defs>
</svg>
